<svg xmlns="http://www.w3.org/2000/svg" width="880" height="448" viewBox="0 0 880 448" font-family="'Courier New', 'SF Mono', Consolas, monospace">
  <defs>
    <pattern id="sl-grind" width="3" height="3" patternUnits="userSpaceOnUse">
      <rect width="3" height="1" fill="#ffffff" opacity="0.025"/>
    </pattern>
    <linearGradient id="hdr-grind" x1="0" y1="0" x2="1" y2="0">
      <stop offset="0%" stop-color="#0d2818"/>
      <stop offset="100%" stop-color="#0d1117"/>
    </linearGradient>
  </defs>
  <rect width="880" height="448" rx="8" fill="#0d1117"/>
  <rect width="880" height="448" rx="8" fill="url(#sl-grind)"/>
  <rect x="0.5" y="0.5" width="879" height="447" rx="8" fill="none" stroke="#1f3a2a" stroke-width="1"/>
  
  <rect x="0" y="0" width="880" height="44" rx="8" fill="url(#hdr-grind)"/>
  <rect x="0" y="38" width="880" height="6" fill="#0d1117"/>
  <line x1="0" y1="44" x2="880" y2="44" stroke="#00ff66" stroke-width="0.6" opacity="0.55"/>
  <text x="20" y="28" fill="#00ff66" font-size="13" letter-spacing="2">// DAILY GRIND</text>
  <text x="180" y="28" fill="#6e7681" font-size="10" letter-spacing="1">matches your github profile graph · 1:1</text>
  <circle cx="740" cy="24" r="3" fill="#00ff66">
    <animate attributeName="opacity" values="1;0.3;1" dur="1.6s" repeatCount="indefinite"/>
  </circle>
  <text x="860" y="28" fill="#00ff66" font-size="11" text-anchor="end" letter-spacing="1" opacity="0.75">LIVE · CEST · /15min · beat yesterday</text>
  
  <text x="36" y="80" fill="#6e7681" font-size="10" letter-spacing="2">TODAY</text>
  <text x="36" y="126" fill="#ffffff" font-size="44" font-weight="700">1</text>
  <text x="36" y="156" fill="#7d8590" font-size="10" letter-spacing="2">CONTRIBUTIONS</text>

  <text x="305.3333333333333" y="80" fill="#6e7681" font-size="10" letter-spacing="2">YESTERDAY</text>
  <text x="305.3333333333333" y="126" fill="#7d8590" font-size="44" font-weight="700">0</text>
  <text x="305.3333333333333" y="156" fill="#7d8590" font-size="10" letter-spacing="2">CONTRIBUTIONS</text>

  <text x="574.6666666666666" y="80" fill="#6e7681" font-size="10" letter-spacing="2">DELTA</text>
  <text x="574.6666666666666" y="126" fill="#00ff66" font-size="36" font-weight="700">↑ +1 ahead</text>
  <line x1="36" y1="180" x2="844" y2="180" stroke="#21262d" stroke-width="0.5"/>
  
  <text x="36" y="212" fill="#6e7681" font-size="10" letter-spacing="2">STREAK</text>
  <text x="36" y="258" fill="#00ff66" font-size="44" font-weight="700">1</text>
  <text x="36" y="288" fill="#7d8590" font-size="10" letter-spacing="2">DAY · ALIVE</text>

  <text x="305.3333333333333" y="212" fill="#6e7681" font-size="10" letter-spacing="2">BEST DAY · 365D</text>
  <text x="305.3333333333333" y="258" fill="#ffb000" font-size="44" font-weight="700">105</text>
  <text x="305.3333333333333" y="288" fill="#7d8590" font-size="10" letter-spacing="2">ON APR 06</text>

  <text x="574.6666666666666" y="212" fill="#6e7681" font-size="10" letter-spacing="2">TARGET TO BEAT</text>
  <rect x="574.6666666666666" y="242" width="237.33333333333331" height="8" rx="4" fill="#161b22"/>
  <rect x="574.6666666666666" y="242" width="2.2603174603174603" height="8" rx="4" fill="#ffb000" opacity="0.9"/>
  <text x="574.6666666666666" y="272" fill="#ffb000" font-size="14" font-weight="700">1 / 105 = 1%</text>
  <line x1="36" y1="312" x2="844" y2="312" stroke="#21262d" stroke-width="0.5"/>
  
  <text x="36" y="340" fill="#6e7681" font-size="10" letter-spacing="2">LAST 90 DAYS · daily</text>
  <text x="844" y="340" fill="#484f58" font-size="10" letter-spacing="1" text-anchor="end">max 105 / day</text>
  <rect x="36.5" y="416" width="6" height="0" rx="1" fill="#00ff66" opacity="0.30"/><rect x="45.5" y="416" width="6" height="0" rx="1" fill="#00ff66" opacity="0.30"/><rect x="54.5" y="416" width="6" height="0" rx="1" fill="#00ff66" opacity="0.30"/><rect x="63.5" y="416" width="6" height="0" rx="1" fill="#00ff66" opacity="0.30"/><rect x="72.5" y="416" width="6" height="0" rx="1" fill="#00ff66" opacity="0.30"/><rect x="81.5" y="416" width="6" height="0" rx="1" fill="#00ff66" opacity="0.30"/><rect x="90.5" y="416" width="6" height="0" rx="1" fill="#00ff66" opacity="0.30"/><rect x="99.5" y="416" width="6" height="0" rx="1" fill="#00ff66" opacity="0.30"/><rect x="108.5" y="416" width="6" height="0" rx="1" fill="#00ff66" opacity="0.30"/><rect x="117.5" y="416" width="6" height="0" rx="1" fill="#00ff66" opacity="0.30"/><rect x="126.5" y="416" width="6" height="0" rx="1" fill="#00ff66" opacity="0.30"/><rect x="135.5" y="416" width="6" height="0" rx="1" fill="#00ff66" opacity="0.30"/><rect x="144.5" y="416" width="6" height="0" rx="1" fill="#00ff66" opacity="0.30"/><rect x="153.5" y="416" width="6" height="0" rx="1" fill="#00ff66" opacity="0.30"/><rect x="162.5" y="416" width="6" height="0" rx="1" fill="#00ff66" opacity="0.30"/><rect x="171.5" y="416" width="6" height="0" rx="1" fill="#00ff66" opacity="0.30"/><rect x="180.5" y="416" width="6" height="0" rx="1" fill="#00ff66" opacity="0.30"/><rect x="189.5" y="416" width="6" height="0" rx="1" fill="#00ff66" opacity="0.30"/><rect x="198.5" y="416" width="6" height="0" rx="1" fill="#00ff66" opacity="0.30"/><rect x="207.5" y="416" width="6" height="0" rx="1" fill="#00ff66" opacity="0.30"/><rect x="216.5" y="416" width="6" height="0" rx="1" fill="#00ff66" opacity="0.30"/><rect x="225.5" y="416" width="6" height="0" rx="1" fill="#00ff66" opacity="0.30"/><rect x="234.5" y="416" width="6" height="0" rx="1" fill="#00ff66" opacity="0.30"/><rect x="243.5" y="416" width="6" height="0" rx="1" fill="#00ff66" opacity="0.30"/><rect x="252.5" y="416" width="6" height="0" rx="1" fill="#00ff66" opacity="0.30"/><rect x="261.5" y="416" width="6" height="0" rx="1" fill="#00ff66" opacity="0.30"/><rect x="270.5" y="397.14285714285717" width="6" height="18.857142857142858" rx="1" fill="#00ff66" opacity="0.49"/><rect x="279.5" y="416" width="6" height="0" rx="1" fill="#00ff66" opacity="0.30"/><rect x="288.5" y="416" width="6" height="0" rx="1" fill="#00ff66" opacity="0.30"/><rect x="297.5" y="416" width="6" height="0" rx="1" fill="#00ff66" opacity="0.30"/><rect x="306.5" y="416" width="6" height="0" rx="1" fill="#00ff66" opacity="0.30"/><rect x="315.5" y="416" width="6" height="0" rx="1" fill="#00ff66" opacity="0.30"/><rect x="324.5" y="410.2857142857143" width="6" height="5.7142857142857135" rx="1" fill="#00ff66" opacity="0.36"/><rect x="333.5" y="413.7142857142857" width="6" height="2.285714285714286" rx="1" fill="#00ff66" opacity="0.32"/><rect x="342.5" y="409.7142857142857" width="6" height="6.285714285714286" rx="1" fill="#00ff66" opacity="0.36"/><rect x="351.5" y="378.85714285714283" width="6" height="37.142857142857146" rx="1" fill="#00ff66" opacity="0.67"/><rect x="360.5" y="392" width="6" height="24" rx="1" fill="#00ff66" opacity="0.54"/><rect x="369.5" y="414" width="6" height="2" rx="1" fill="#00ff66" opacity="0.31"/><rect x="378.5" y="413.14285714285717" width="6" height="2.8571428571428568" rx="1" fill="#00ff66" opacity="0.33"/><rect x="387.5" y="404.57142857142856" width="6" height="11.428571428571427" rx="1" fill="#00ff66" opacity="0.41"/><rect x="396.5" y="406.85714285714283" width="6" height="9.142857142857144" rx="1" fill="#00ff66" opacity="0.39"/><rect x="405.5" y="401.7142857142857" width="6" height="14.285714285714285" rx="1" fill="#00ff66" opacity="0.44"/><rect x="414.5" y="414" width="6" height="2" rx="1" fill="#00ff66" opacity="0.31"/><rect x="423.5" y="414" width="6" height="2" rx="1" fill="#00ff66" opacity="0.32"/><rect x="432.5" y="414" width="6" height="2" rx="1" fill="#00ff66" opacity="0.31"/><rect x="441.5" y="356" width="6" height="60" rx="1" fill="#00ff66" opacity="0.90"/><rect x="450.5" y="396.57142857142856" width="6" height="19.42857142857143" rx="1" fill="#00ff66" opacity="0.49"/><rect x="459.5" y="383.42857142857144" width="6" height="32.57142857142857" rx="1" fill="#00ff66" opacity="0.63"/><rect x="468.5" y="388" width="6" height="28" rx="1" fill="#00ff66" opacity="0.58"/><rect x="477.5" y="412.57142857142856" width="6" height="3.4285714285714284" rx="1" fill="#00ff66" opacity="0.33"/><rect x="486.5" y="403.42857142857144" width="6" height="12.571428571428571" rx="1" fill="#00ff66" opacity="0.43"/><rect x="495.5" y="408" width="6" height="8" rx="1" fill="#00ff66" opacity="0.38"/><rect x="504.5" y="410.85714285714283" width="6" height="5.142857142857143" rx="1" fill="#00ff66" opacity="0.35"/><rect x="513.5" y="414" width="6" height="2" rx="1" fill="#00ff66" opacity="0.32"/><rect x="522.5" y="413.14285714285717" width="6" height="2.8571428571428568" rx="1" fill="#00ff66" opacity="0.33"/><rect x="531.5" y="416" width="6" height="0" rx="1" fill="#00ff66" opacity="0.30"/><rect x="540.5" y="416" width="6" height="0" rx="1" fill="#00ff66" opacity="0.30"/><rect x="549.5" y="416" width="6" height="0" rx="1" fill="#00ff66" opacity="0.30"/><rect x="558.5" y="416" width="6" height="0" rx="1" fill="#00ff66" opacity="0.30"/><rect x="567.5" y="416" width="6" height="0" rx="1" fill="#00ff66" opacity="0.30"/><rect x="576.5" y="414" width="6" height="2" rx="1" fill="#00ff66" opacity="0.31"/><rect x="585.5" y="416" width="6" height="0" rx="1" fill="#00ff66" opacity="0.30"/><rect x="594.5" y="414" width="6" height="2" rx="1" fill="#00ff66" opacity="0.31"/><rect x="603.5" y="406.85714285714283" width="6" height="9.142857142857144" rx="1" fill="#00ff66" opacity="0.39"/><rect x="612.5" y="399.42857142857144" width="6" height="16.571428571428573" rx="1" fill="#00ff66" opacity="0.47"/><rect x="621.5" y="413.7142857142857" width="6" height="2.285714285714286" rx="1" fill="#00ff66" opacity="0.32"/><rect x="630.5" y="367.42857142857144" width="6" height="48.57142857142857" rx="1" fill="#00ff66" opacity="0.79"/><rect x="639.5" y="397.14285714285717" width="6" height="18.857142857142858" rx="1" fill="#00ff66" opacity="0.49"/><rect x="648.5" y="409.14285714285717" width="6" height="6.857142857142857" rx="1" fill="#00ff66" opacity="0.37"/><rect x="657.5" y="413.7142857142857" width="6" height="2.285714285714286" rx="1" fill="#00ff66" opacity="0.32"/><rect x="666.5" y="410.2857142857143" width="6" height="5.7142857142857135" rx="1" fill="#00ff66" opacity="0.36"/><rect x="675.5" y="410.2857142857143" width="6" height="5.7142857142857135" rx="1" fill="#00ff66" opacity="0.36"/><rect x="684.5" y="416" width="6" height="0" rx="1" fill="#00ff66" opacity="0.30"/><rect x="693.5" y="385.14285714285717" width="6" height="30.857142857142854" rx="1" fill="#00ff66" opacity="0.61"/><rect x="702.5" y="412" width="6" height="4" rx="1" fill="#00ff66" opacity="0.34"/><rect x="711.5" y="406.85714285714283" width="6" height="9.142857142857144" rx="1" fill="#00ff66" opacity="0.39"/><rect x="720.5" y="416" width="6" height="0" rx="1" fill="#00ff66" opacity="0.30"/><rect x="729.5" y="416" width="6" height="0" rx="1" fill="#00ff66" opacity="0.30"/><rect x="738.5" y="416" width="6" height="0" rx="1" fill="#00ff66" opacity="0.30"/><rect x="747.5" y="416" width="6" height="0" rx="1" fill="#00ff66" opacity="0.30"/><rect x="756.5" y="416" width="6" height="0" rx="1" fill="#00ff66" opacity="0.30"/><rect x="765.5" y="416" width="6" height="0" rx="1" fill="#00ff66" opacity="0.30"/><rect x="774.5" y="416" width="6" height="0" rx="1" fill="#00ff66" opacity="0.30"/><rect x="783.5" y="416" width="6" height="0" rx="1" fill="#00ff66" opacity="0.30"/><rect x="792.5" y="416" width="6" height="0" rx="1" fill="#00ff66" opacity="0.30"/><rect x="801.5" y="416" width="6" height="0" rx="1" fill="#00ff66" opacity="0.30"/><rect x="810.5" y="416" width="6" height="0" rx="1" fill="#00ff66" opacity="0.30"/><rect x="819.5" y="416" width="6" height="0" rx="1" fill="#00ff66" opacity="0.30"/><rect x="828.5" y="416" width="6" height="0" rx="1" fill="#00ff66" opacity="0.30"/><rect x="837.5" y="414" width="6" height="2" rx="1" fill="#ffffff" opacity="1"/>
  <line x1="36.5" y1="420" x2="843.5" y2="420" stroke="#21262d" stroke-width="0.5"/>
  <text x="36.5" y="434" fill="#484f58" font-size="9">90d ago</text>
  <text x="843.5" y="434" fill="#ffffff" font-size="9" text-anchor="end" font-weight="700">today ●</text>
</svg>
