<svg xmlns="http://www.w3.org/2000/svg" width="880" height="726" viewBox="0 0 880 726" font-family="'Courier New', 'SF Mono', Consolas, monospace">
  <defs>
    <pattern id="sl-priv" width="3" height="3" patternUnits="userSpaceOnUse">
      <rect width="3" height="1" fill="#ffffff" opacity="0.025"/>
    </pattern>
    <linearGradient id="hdr-priv" x1="0" y1="0" x2="1" y2="0">
      <stop offset="0%" stop-color="#161b22"/>
      <stop offset="100%" stop-color="#0d1117"/>
    </linearGradient>
  </defs>
  <rect width="880" height="726" rx="8" fill="#0d1117"/>
  <rect width="880" height="726" rx="8" fill="url(#sl-priv)"/>
  <rect x="0.5" y="0.5" width="879" height="725" rx="8" fill="none" stroke="#21262d" stroke-width="1"/>
  
  <rect x="0" y="0" width="880" height="44" rx="8" fill="url(#hdr-priv)"/>
  <rect x="0" y="38" width="880" height="6" fill="#0d1117"/>
  <line x1="0" y1="44" x2="880" y2="44" stroke="#e6edf3" stroke-width="0.6" opacity="0.55"/>
  <text x="20" y="28" fill="#e6edf3" font-size="13" letter-spacing="2">// TELEMETRY · PRIVATE</text>
  <text x="860" y="28" fill="#e6edf3" font-size="11" text-anchor="end" letter-spacing="1" opacity="0.75">[CLASSIFIED]</text>
  
  <text x="440" y="120" font-size="64" font-weight="700" fill="#ffffff" text-anchor="middle" letter-spacing="2">3,797</text>
  <text x="440" y="145" font-size="11" fill="#7d8590" text-anchor="middle" letter-spacing="3">COMMITS · LAST 365 DAYS</text>
  
  <text x="32" y="195" fill="#6e7681" font-size="10" letter-spacing="2">ACTIVITY · 52 WEEKS</text>
  <rect x="52" y="290" width="11" height="0" rx="1" fill="#e6edf3" opacity="0.30"/><rect x="67" y="290" width="11" height="0" rx="1" fill="#e6edf3" opacity="0.30"/><rect x="82" y="290" width="11" height="0" rx="1" fill="#e6edf3" opacity="0.30"/><rect x="97" y="290" width="11" height="0" rx="1" fill="#e6edf3" opacity="0.30"/><rect x="112" y="290" width="11" height="0" rx="1" fill="#e6edf3" opacity="0.30"/><rect x="127" y="290" width="11" height="0" rx="1" fill="#e6edf3" opacity="0.30"/><rect x="142" y="290" width="11" height="0" rx="1" fill="#e6edf3" opacity="0.30"/><rect x="157" y="290" width="11" height="0" rx="1" fill="#e6edf3" opacity="0.30"/><rect x="172" y="290" width="11" height="0" rx="1" fill="#e6edf3" opacity="0.30"/><rect x="187" y="290" width="11" height="0" rx="1" fill="#e6edf3" opacity="0.30"/><rect x="202" y="290" width="11" height="0" rx="1" fill="#e6edf3" opacity="0.30"/><rect x="217" y="290" width="11" height="0" rx="1" fill="#e6edf3" opacity="0.30"/><rect x="232" y="290" width="11" height="0" rx="1" fill="#e6edf3" opacity="0.30"/><rect x="247" y="290" width="11" height="0" rx="1" fill="#e6edf3" opacity="0.30"/><rect x="262" y="290" width="11" height="0" rx="1" fill="#e6edf3" opacity="0.30"/><rect x="277" y="290" width="11" height="0" rx="1" fill="#e6edf3" opacity="0.30"/><rect x="292" y="290" width="11" height="0" rx="1" fill="#e6edf3" opacity="0.30"/><rect x="307" y="290" width="11" height="0" rx="1" fill="#e6edf3" opacity="0.30"/><rect x="322" y="290" width="11" height="0" rx="1" fill="#e6edf3" opacity="0.30"/><rect x="337" y="290" width="11" height="0" rx="1" fill="#e6edf3" opacity="0.30"/><rect x="352" y="290" width="11" height="0" rx="1" fill="#e6edf3" opacity="0.30"/><rect x="367" y="290" width="11" height="0" rx="1" fill="#e6edf3" opacity="0.30"/><rect x="382" y="290" width="11" height="0" rx="1" fill="#e6edf3" opacity="0.30"/><rect x="397" y="290" width="11" height="0" rx="1" fill="#e6edf3" opacity="0.30"/><rect x="412" y="290" width="11" height="0" rx="1" fill="#e6edf3" opacity="0.30"/><rect x="427" y="290" width="11" height="0" rx="1" fill="#e6edf3" opacity="0.30"/><rect x="442" y="290" width="11" height="0" rx="1" fill="#e6edf3" opacity="0.30"/><rect x="457" y="290" width="11" height="0" rx="1" fill="#e6edf3" opacity="0.30"/><rect x="472" y="290" width="11" height="0" rx="1" fill="#e6edf3" opacity="0.30"/><rect x="487" y="290" width="11" height="0" rx="1" fill="#e6edf3" opacity="0.30"/><rect x="502" y="290" width="11" height="0" rx="1" fill="#e6edf3" opacity="0.30"/><rect x="517" y="288" width="11" height="2" rx="1" fill="#e6edf3" opacity="0.30"/><rect x="532" y="290" width="11" height="0" rx="1" fill="#e6edf3" opacity="0.30"/><rect x="547" y="287.2390572390572" width="11" height="2.7609427609427613" rx="1" fill="#e6edf3" opacity="0.32"/><rect x="562" y="274.71380471380473" width="11" height="15.286195286195285" rx="1" fill="#e6edf3" opacity="0.43"/><rect x="577" y="210" width="11" height="80" rx="1" fill="#e6edf3" opacity="1.00"/><rect x="592" y="267.37373737373736" width="11" height="22.626262626262626" rx="1" fill="#e6edf3" opacity="0.50"/><rect x="607" y="281.1111111111111" width="11" height="8.88888888888889" rx="1" fill="#e6edf3" opacity="0.38"/><rect x="622" y="283.6026936026936" width="11" height="6.397306397306397" rx="1" fill="#e6edf3" opacity="0.36"/><rect x="637" y="271.3468013468013" width="11" height="18.653198653198654" rx="1" fill="#e6edf3" opacity="0.46"/><rect x="652" y="274.5117845117845" width="11" height="15.488215488215488" rx="1" fill="#e6edf3" opacity="0.44"/><rect x="667" y="271.6161616161616" width="11" height="18.383838383838384" rx="1" fill="#e6edf3" opacity="0.46"/><rect x="682" y="288" width="11" height="2" rx="1" fill="#e6edf3" opacity="0.30"/><rect x="697" y="290" width="11" height="0" rx="1" fill="#e6edf3" opacity="0.30"/><rect x="712" y="285.35353535353534" width="11" height="4.646464646464646" rx="1" fill="#e6edf3" opacity="0.34"/><rect x="727" y="287.57575757575756" width="11" height="2.4242424242424243" rx="1" fill="#e6edf3" opacity="0.32"/><rect x="742" y="288" width="11" height="2" rx="1" fill="#e6edf3" opacity="0.32"/><rect x="757" y="276.8013468013468" width="11" height="13.198653198653199" rx="1" fill="#e6edf3" opacity="0.42"/><rect x="772" y="286.7003367003367" width="11" height="3.2996632996632997" rx="1" fill="#e6edf3" opacity="0.33"/><rect x="787" y="287.17171717171715" width="11" height="2.8282828282828283" rx="1" fill="#e6edf3" opacity="0.32"/><rect x="802" y="282.6599326599327" width="11" height="7.34006734006734" rx="1" fill="#e6edf3" opacity="0.36"/><rect x="817" y="258.4848484848485" width="11" height="31.515151515151516" rx="1" fill="#e6edf3" opacity="0.58"/>
  <line x1="52" y1="294" x2="828" y2="294" stroke="#21262d" stroke-width="0.5"/>
  <text x="52" y="308" fill="#484f58" font-size="9">52w ago</text>
  <text x="828" y="308" fill="#484f58" font-size="9" text-anchor="end">today</text>
  
  <text x="32" y="328" fill="#6e7681" font-size="10" letter-spacing="2">DISTRIBUTION · WEEKDAY</text>
  
  <text x="32" y="360" fill="#7d8590" font-size="11" letter-spacing="2">MON</text>
  <rect x="76" y="351" width="308" height="6" rx="3" fill="#161b22"/>
  <rect x="76" y="351" width="267.1623296158612" height="6" rx="3" fill="#e6edf3" opacity="0.93"/>
  <text x="424" y="360" fill="#e6edf3" font-size="11" text-anchor="end">700</text>
  <text x="32" y="382" fill="#7d8590" font-size="11" letter-spacing="2">TUE</text>
  <rect x="76" y="373" width="308" height="6" rx="3" fill="#161b22"/>
  <rect x="76" y="373" width="192.35687732342006" height="6" rx="3" fill="#e6edf3" opacity="0.81"/>
  <text x="424" y="382" fill="#e6edf3" font-size="11" text-anchor="end">504</text>
  <text x="32" y="404" fill="#7d8590" font-size="11" letter-spacing="2">WED</text>
  <rect x="76" y="395" width="308" height="6" rx="3" fill="#161b22"/>
  <rect x="76" y="395" width="308" height="6" rx="3" fill="#e6edf3" opacity="1.00"/>
  <text x="424" y="404" fill="#e6edf3" font-size="11" text-anchor="end">807</text>
  <text x="32" y="426" fill="#7d8590" font-size="11" letter-spacing="2">THU</text>
  <rect x="76" y="417" width="308" height="6" rx="3" fill="#161b22"/>
  <rect x="76" y="417" width="216.4014869888476" height="6" rx="3" fill="#e6edf3" opacity="0.85"/>
  <text x="424" y="426" fill="#e6edf3" font-size="11" text-anchor="end">567</text>
  <text x="32" y="448" fill="#7d8590" font-size="11" letter-spacing="2">FRI</text>
  <rect x="76" y="439" width="308" height="6" rx="3" fill="#161b22"/>
  <rect x="76" y="439" width="170.98389095415118" height="6" rx="3" fill="#e6edf3" opacity="0.78"/>
  <text x="424" y="448" fill="#e6edf3" font-size="11" text-anchor="end">448</text>
  <text x="32" y="470" fill="#7d8590" font-size="11" letter-spacing="2">SAT</text>
  <rect x="76" y="461" width="308" height="6" rx="3" fill="#161b22"/>
  <rect x="76" y="461" width="143.12267657992564" height="6" rx="3" fill="#e6edf3" opacity="0.73"/>
  <text x="424" y="470" fill="#e6edf3" font-size="11" text-anchor="end">375</text>
  <text x="32" y="492" fill="#7d8590" font-size="11" letter-spacing="2">SUN</text>
  <rect x="76" y="483" width="308" height="6" rx="3" fill="#161b22"/>
  <rect x="76" y="483" width="151.1375464684015" height="6" rx="3" fill="#e6edf3" opacity="0.75"/>
  <text x="424" y="492" fill="#e6edf3" font-size="11" text-anchor="end">396</text>
  
  <text x="456" y="328" fill="#6e7681" font-size="10" letter-spacing="2">CIRCADIAN · 24H</text>
  <rect x="474" y="388.6825938566553" width="11" height="39.31740614334471" rx="1" fill="#e6edf3" opacity="0.64"/><rect x="489" y="395.5085324232082" width="11" height="32.491467576791806" rx="1" fill="#e6edf3" opacity="0.58"/><rect x="504" y="413.52901023890786" width="11" height="14.47098976109215" rx="1" fill="#e6edf3" opacity="0.43"/><rect x="519" y="414.8941979522184" width="11" height="13.10580204778157" rx="1" fill="#e6edf3" opacity="0.41"/><rect x="534" y="424.45051194539246" width="11" height="3.5494880546075085" rx="1" fill="#e6edf3" opacity="0.33"/><rect x="549" y="426" width="11" height="2" rx="1" fill="#e6edf3" opacity="0.32"/><rect x="564" y="420.901023890785" width="11" height="7.098976109215017" rx="1" fill="#e6edf3" opacity="0.36"/><rect x="579" y="410.25255972696243" width="11" height="17.747440273037544" rx="1" fill="#e6edf3" opacity="0.46"/><rect x="594" y="399.0580204778157" width="11" height="28.9419795221843" rx="1" fill="#e6edf3" opacity="0.55"/><rect x="609" y="403.4266211604096" width="11" height="24.573378839590447" rx="1" fill="#e6edf3" opacity="0.52"/><rect x="624" y="396.8737201365188" width="11" height="31.12627986348123" rx="1" fill="#e6edf3" opacity="0.57"/><rect x="639" y="385.679180887372" width="11" height="42.32081911262799" rx="1" fill="#e6edf3" opacity="0.67"/><rect x="654" y="356.73720136518773" width="11" height="71.26279863481228" rx="1" fill="#e6edf3" opacity="0.92"/><rect x="669" y="375.57679180887374" width="11" height="52.42320819112628" rx="1" fill="#e6edf3" opacity="0.76"/><rect x="684" y="367.65870307167233" width="11" height="60.341296928327644" rx="1" fill="#e6edf3" opacity="0.83"/><rect x="699" y="369.84300341296927" width="11" height="58.15699658703072" rx="1" fill="#e6edf3" opacity="0.81"/><rect x="714" y="355.3720136518771" width="11" height="72.62798634812286" rx="1" fill="#e6edf3" opacity="0.94"/><rect x="729" y="348" width="11" height="80" rx="1" fill="#e6edf3" opacity="1.00"/><rect x="744" y="354.27986348122863" width="11" height="73.72013651877134" rx="1" fill="#e6edf3" opacity="0.95"/><rect x="759" y="364.38225255972696" width="11" height="63.617747440273035" rx="1" fill="#e6edf3" opacity="0.86"/><rect x="774" y="355.9180887372014" width="11" height="72.08191126279863" rx="1" fill="#e6edf3" opacity="0.93"/><rect x="789" y="362.19795221843003" width="11" height="65.80204778156997" rx="1" fill="#e6edf3" opacity="0.88"/><rect x="804" y="369.02389078498294" width="11" height="58.97610921501706" rx="1" fill="#e6edf3" opacity="0.82"/><rect x="819" y="376.9419795221843" width="11" height="51.058020477815695" rx="1" fill="#e6edf3" opacity="0.75"/>
  <line x1="474" y1="432" x2="830" y2="432" stroke="#21262d" stroke-width="0.5"/>
  <text x="474" y="446" fill="#484f58" font-size="9">00h</text>
  <text x="652" y="446" fill="#484f58" font-size="9" text-anchor="middle">12h</text>
  <text x="830" y="446" fill="#484f58" font-size="9" text-anchor="end">24h</text>
  
  <text x="32" y="530" fill="#6e7681" font-size="10" letter-spacing="2">STATS</text>
  
  <text x="32" y="566" fill="#6e7681" font-size="9" letter-spacing="2">REPOS</text>
  <text x="32" y="590" fill="#e6edf3" font-size="16" font-weight="600">5</text>
  <text x="304" y="566" fill="#6e7681" font-size="9" letter-spacing="2">AVG / DAY</text>
  <text x="304" y="590" fill="#e6edf3" font-size="16" font-weight="600">10.4</text>
  <text x="576" y="566" fill="#6e7681" font-size="9" letter-spacing="2">PEAK DAY</text>
  <text x="576" y="590" fill="#e6edf3" font-size="16" font-weight="600">WED</text>
  <text x="32" y="622" fill="#6e7681" font-size="9" letter-spacing="2">PEAK HOUR</text>
  <text x="32" y="646" fill="#e6edf3" font-size="16" font-weight="600">17:00</text>
  <text x="304" y="622" fill="#6e7681" font-size="9" letter-spacing="2">LONGEST GAP</text>
  <text x="304" y="646" fill="#e6edf3" font-size="16" font-weight="600">13 days</text>
  <text x="576" y="622" fill="#6e7681" font-size="9" letter-spacing="2">LAST COMMIT</text>
  <text x="576" y="646" fill="#e6edf3" font-size="16" font-weight="600">9h ago</text>
  
  <line x1="32" y1="686" x2="848" y2="686" stroke="#21262d" stroke-width="0.5"/>
  <text x="32" y="710" fill="#484f58" font-size="10" letter-spacing="1">// telemetry · auto-generated · github actions</text>
  <text x="848" y="710" fill="#484f58" font-size="10" letter-spacing="1" text-anchor="end">↻ 2026-09-12</text>
</svg>
