<svg xmlns="http://www.w3.org/2000/svg" width="880" height="726" viewBox="0 0 880 726" font-family="'Courier New', 'SF Mono', Consolas, monospace">
  <defs>
    <pattern id="sl-priv" width="3" height="3" patternUnits="userSpaceOnUse">
      <rect width="3" height="1" fill="#ffffff" opacity="0.025"/>
    </pattern>
    <linearGradient id="hdr-priv" x1="0" y1="0" x2="1" y2="0">
      <stop offset="0%" stop-color="#161b22"/>
      <stop offset="100%" stop-color="#0d1117"/>
    </linearGradient>
  </defs>
  <rect width="880" height="726" rx="8" fill="#0d1117"/>
  <rect width="880" height="726" rx="8" fill="url(#sl-priv)"/>
  <rect x="0.5" y="0.5" width="879" height="725" rx="8" fill="none" stroke="#21262d" stroke-width="1"/>
  
  <rect x="0" y="0" width="880" height="44" rx="8" fill="url(#hdr-priv)"/>
  <rect x="0" y="38" width="880" height="6" fill="#0d1117"/>
  <line x1="0" y1="44" x2="880" y2="44" stroke="#e6edf3" stroke-width="0.6" opacity="0.55"/>
  <text x="20" y="28" fill="#e6edf3" font-size="13" letter-spacing="2">// TELEMETRY · PRIVATE</text>
  <text x="860" y="28" fill="#e6edf3" font-size="11" text-anchor="end" letter-spacing="1" opacity="0.75">[CLASSIFIED]</text>
  
  <text x="440" y="120" font-size="64" font-weight="700" fill="#ffffff" text-anchor="middle" letter-spacing="2">3,245</text>
  <text x="440" y="145" font-size="11" fill="#7d8590" text-anchor="middle" letter-spacing="3">COMMITS · LAST 365 DAYS</text>
  
  <text x="32" y="195" fill="#6e7681" font-size="10" letter-spacing="2">ACTIVITY · 52 WEEKS</text>
  <rect x="52" y="290" width="11" height="0" rx="1" fill="#e6edf3" opacity="0.30"/><rect x="67" y="290" width="11" height="0" rx="1" fill="#e6edf3" opacity="0.30"/><rect x="82" y="290" width="11" height="0" rx="1" fill="#e6edf3" opacity="0.30"/><rect x="97" y="290" width="11" height="0" rx="1" fill="#e6edf3" opacity="0.30"/><rect x="112" y="290" width="11" height="0" rx="1" fill="#e6edf3" opacity="0.30"/><rect x="127" y="290" width="11" height="0" rx="1" fill="#e6edf3" opacity="0.30"/><rect x="142" y="290" width="11" height="0" rx="1" fill="#e6edf3" opacity="0.30"/><rect x="157" y="290" width="11" height="0" rx="1" fill="#e6edf3" opacity="0.30"/><rect x="172" y="290" width="11" height="0" rx="1" fill="#e6edf3" opacity="0.30"/><rect x="187" y="290" width="11" height="0" rx="1" fill="#e6edf3" opacity="0.30"/><rect x="202" y="290" width="11" height="0" rx="1" fill="#e6edf3" opacity="0.30"/><rect x="217" y="290" width="11" height="0" rx="1" fill="#e6edf3" opacity="0.30"/><rect x="232" y="290" width="11" height="0" rx="1" fill="#e6edf3" opacity="0.30"/><rect x="247" y="290" width="11" height="0" rx="1" fill="#e6edf3" opacity="0.30"/><rect x="262" y="290" width="11" height="0" rx="1" fill="#e6edf3" opacity="0.30"/><rect x="277" y="290" width="11" height="0" rx="1" fill="#e6edf3" opacity="0.30"/><rect x="292" y="290" width="11" height="0" rx="1" fill="#e6edf3" opacity="0.30"/><rect x="307" y="290" width="11" height="0" rx="1" fill="#e6edf3" opacity="0.30"/><rect x="322" y="290" width="11" height="0" rx="1" fill="#e6edf3" opacity="0.30"/><rect x="337" y="290" width="11" height="0" rx="1" fill="#e6edf3" opacity="0.30"/><rect x="352" y="290" width="11" height="0" rx="1" fill="#e6edf3" opacity="0.30"/><rect x="367" y="290" width="11" height="0" rx="1" fill="#e6edf3" opacity="0.30"/><rect x="382" y="290" width="11" height="0" rx="1" fill="#e6edf3" opacity="0.30"/><rect x="397" y="290" width="11" height="0" rx="1" fill="#e6edf3" opacity="0.30"/><rect x="412" y="290" width="11" height="0" rx="1" fill="#e6edf3" opacity="0.30"/><rect x="427" y="290" width="11" height="0" rx="1" fill="#e6edf3" opacity="0.30"/><rect x="442" y="290" width="11" height="0" rx="1" fill="#e6edf3" opacity="0.30"/><rect x="457" y="290" width="11" height="0" rx="1" fill="#e6edf3" opacity="0.30"/><rect x="472" y="290" width="11" height="0" rx="1" fill="#e6edf3" opacity="0.30"/><rect x="487" y="290" width="11" height="0" rx="1" fill="#e6edf3" opacity="0.30"/><rect x="502" y="290" width="11" height="0" rx="1" fill="#e6edf3" opacity="0.30"/><rect x="517" y="290" width="11" height="0" rx="1" fill="#e6edf3" opacity="0.30"/><rect x="532" y="290" width="11" height="0" rx="1" fill="#e6edf3" opacity="0.30"/><rect x="547" y="288" width="11" height="2" rx="1" fill="#e6edf3" opacity="0.30"/><rect x="562" y="288" width="11" height="2" rx="1" fill="#e6edf3" opacity="0.31"/><rect x="577" y="279.77205153617444" width="11" height="10.22794846382557" rx="1" fill="#e6edf3" opacity="0.39"/><rect x="592" y="210" width="11" height="80" rx="1" fill="#e6edf3" opacity="1.00"/><rect x="607" y="246.3131813676908" width="11" height="43.68681863230922" rx="1" fill="#e6edf3" opacity="0.68"/><rect x="622" y="273.3498513379584" width="11" height="16.650148662041627" rx="1" fill="#e6edf3" opacity="0.45"/><rect x="637" y="286.9871159563925" width="11" height="3.0128840436075324" rx="1" fill="#e6edf3" opacity="0.33"/><rect x="652" y="268.19623389494546" width="11" height="21.80376610505451" rx="1" fill="#e6edf3" opacity="0.49"/><rect x="667" y="276.8384539147671" width="11" height="13.161546085232905" rx="1" fill="#e6edf3" opacity="0.42"/><rect x="682" y="264.70763131813675" width="11" height="25.29236868186323" rx="1" fill="#e6edf3" opacity="0.52"/><rect x="697" y="283.02279484638257" width="11" height="6.977205153617443" rx="1" fill="#e6edf3" opacity="0.36"/><rect x="712" y="290" width="11" height="0" rx="1" fill="#e6edf3" opacity="0.30"/><rect x="727" y="288" width="11" height="2" rx="1" fill="#e6edf3" opacity="0.31"/><rect x="742" y="283.41922695738356" width="11" height="6.580773042616452" rx="1" fill="#e6edf3" opacity="0.36"/><rect x="757" y="288" width="11" height="2" rx="1" fill="#e6edf3" opacity="0.31"/><rect x="772" y="281.199207135778" width="11" height="8.800792864222002" rx="1" fill="#e6edf3" opacity="0.38"/><rect x="787" y="278.2656095143707" width="11" height="11.734390485629335" rx="1" fill="#e6edf3" opacity="0.40"/><rect x="802" y="288" width="11" height="2" rx="1" fill="#e6edf3" opacity="0.31"/><rect x="817" y="285.2428146679881" width="11" height="4.757185332011893" rx="1" fill="#e6edf3" opacity="0.34"/>
  <line x1="52" y1="294" x2="828" y2="294" stroke="#21262d" stroke-width="0.5"/>
  <text x="52" y="308" fill="#484f58" font-size="9">52w ago</text>
  <text x="828" y="308" fill="#484f58" font-size="9" text-anchor="end">today</text>
  
  <text x="32" y="328" fill="#6e7681" font-size="10" letter-spacing="2">DISTRIBUTION · WEEKDAY</text>
  
  <text x="32" y="360" fill="#7d8590" font-size="11" letter-spacing="2">MON</text>
  <rect x="76" y="351" width="308" height="6" rx="3" fill="#161b22"/>
  <rect x="76" y="351" width="277.6529411764706" height="6" rx="3" fill="#e6edf3" opacity="0.95"/>
  <text x="424" y="360" fill="#e6edf3" font-size="11" text-anchor="end">613</text>
  <text x="32" y="382" fill="#7d8590" font-size="11" letter-spacing="2">TUE</text>
  <rect x="76" y="373" width="308" height="6" rx="3" fill="#161b22"/>
  <rect x="76" y="373" width="198.38823529411766" height="6" rx="3" fill="#e6edf3" opacity="0.82"/>
  <text x="424" y="382" fill="#e6edf3" font-size="11" text-anchor="end">438</text>
  <text x="32" y="404" fill="#7d8590" font-size="11" letter-spacing="2">WED</text>
  <rect x="76" y="395" width="308" height="6" rx="3" fill="#161b22"/>
  <rect x="76" y="395" width="308" height="6" rx="3" fill="#e6edf3" opacity="1.00"/>
  <text x="424" y="404" fill="#e6edf3" font-size="11" text-anchor="end">680</text>
  <text x="32" y="426" fill="#7d8590" font-size="11" letter-spacing="2">THU</text>
  <rect x="76" y="417" width="308" height="6" rx="3" fill="#161b22"/>
  <rect x="76" y="417" width="190.23529411764707" height="6" rx="3" fill="#e6edf3" opacity="0.81"/>
  <text x="424" y="426" fill="#e6edf3" font-size="11" text-anchor="end">420</text>
  <text x="32" y="448" fill="#7d8590" font-size="11" letter-spacing="2">FRI</text>
  <rect x="76" y="439" width="308" height="6" rx="3" fill="#161b22"/>
  <rect x="76" y="439" width="168.94705882352943" height="6" rx="3" fill="#e6edf3" opacity="0.77"/>
  <text x="424" y="448" fill="#e6edf3" font-size="11" text-anchor="end">373</text>
  <text x="32" y="470" fill="#7d8590" font-size="11" letter-spacing="2">SAT</text>
  <rect x="76" y="461" width="308" height="6" rx="3" fill="#161b22"/>
  <rect x="76" y="461" width="149.01764705882354" height="6" rx="3" fill="#e6edf3" opacity="0.74"/>
  <text x="424" y="470" fill="#e6edf3" font-size="11" text-anchor="end">329</text>
  <text x="32" y="492" fill="#7d8590" font-size="11" letter-spacing="2">SUN</text>
  <rect x="76" y="483" width="308" height="6" rx="3" fill="#161b22"/>
  <rect x="76" y="483" width="177.55294117647057" height="6" rx="3" fill="#e6edf3" opacity="0.79"/>
  <text x="424" y="492" fill="#e6edf3" font-size="11" text-anchor="end">392</text>
  
  <text x="456" y="328" fill="#6e7681" font-size="10" letter-spacing="2">CIRCADIAN · 24H</text>
  <rect x="474" y="390.15384615384613" width="11" height="37.84615384615385" rx="1" fill="#e6edf3" opacity="0.63"/><rect x="489" y="397.2307692307692" width="11" height="30.76923076923077" rx="1" fill="#e6edf3" opacity="0.57"/><rect x="504" y="412.61538461538464" width="11" height="15.384615384615385" rx="1" fill="#e6edf3" opacity="0.43"/><rect x="519" y="414.46153846153845" width="11" height="13.53846153846154" rx="1" fill="#e6edf3" opacity="0.42"/><rect x="534" y="424.61538461538464" width="11" height="3.384615384615385" rx="1" fill="#e6edf3" opacity="0.33"/><rect x="549" y="425.84615384615387" width="11" height="2.153846153846154" rx="1" fill="#e6edf3" opacity="0.32"/><rect x="564" y="420" width="11" height="8" rx="1" fill="#e6edf3" opacity="0.37"/><rect x="579" y="408" width="11" height="20" rx="1" fill="#e6edf3" opacity="0.47"/><rect x="594" y="395.38461538461536" width="11" height="32.61538461538461" rx="1" fill="#e6edf3" opacity="0.59"/><rect x="609" y="401.2307692307692" width="11" height="26.769230769230766" rx="1" fill="#e6edf3" opacity="0.53"/><rect x="624" y="395.6923076923077" width="11" height="32.30769230769231" rx="1" fill="#e6edf3" opacity="0.58"/><rect x="639" y="385.2307692307692" width="11" height="42.76923076923077" rx="1" fill="#e6edf3" opacity="0.67"/><rect x="654" y="356.3076923076923" width="11" height="71.6923076923077" rx="1" fill="#e6edf3" opacity="0.93"/><rect x="669" y="376.3076923076923" width="11" height="51.69230769230769" rx="1" fill="#e6edf3" opacity="0.75"/><rect x="684" y="370.7692307692308" width="11" height="57.23076923076923" rx="1" fill="#e6edf3" opacity="0.80"/><rect x="699" y="373.53846153846155" width="11" height="54.46153846153847" rx="1" fill="#e6edf3" opacity="0.78"/><rect x="714" y="358.7692307692308" width="11" height="69.23076923076923" rx="1" fill="#e6edf3" opacity="0.91"/><rect x="729" y="348" width="11" height="80" rx="1" fill="#e6edf3" opacity="1.00"/><rect x="744" y="360.61538461538464" width="11" height="67.38461538461539" rx="1" fill="#e6edf3" opacity="0.89"/><rect x="759" y="371.38461538461536" width="11" height="56.61538461538462" rx="1" fill="#e6edf3" opacity="0.80"/><rect x="774" y="359.6923076923077" width="11" height="68.3076923076923" rx="1" fill="#e6edf3" opacity="0.90"/><rect x="789" y="367.38461538461536" width="11" height="60.61538461538461" rx="1" fill="#e6edf3" opacity="0.83"/><rect x="804" y="377.2307692307692" width="11" height="50.76923076923077" rx="1" fill="#e6edf3" opacity="0.74"/><rect x="819" y="383.0769230769231" width="11" height="44.92307692307692" rx="1" fill="#e6edf3" opacity="0.69"/>
  <line x1="474" y1="432" x2="830" y2="432" stroke="#21262d" stroke-width="0.5"/>
  <text x="474" y="446" fill="#484f58" font-size="9">00h</text>
  <text x="652" y="446" fill="#484f58" font-size="9" text-anchor="middle">12h</text>
  <text x="830" y="446" fill="#484f58" font-size="9" text-anchor="end">24h</text>
  
  <text x="32" y="530" fill="#6e7681" font-size="10" letter-spacing="2">STATS</text>
  
  <text x="32" y="566" fill="#6e7681" font-size="9" letter-spacing="2">REPOS</text>
  <text x="32" y="590" fill="#e6edf3" font-size="16" font-weight="600">5</text>
  <text x="304" y="566" fill="#6e7681" font-size="9" letter-spacing="2">AVG / DAY</text>
  <text x="304" y="590" fill="#e6edf3" font-size="16" font-weight="600">8.9</text>
  <text x="576" y="566" fill="#6e7681" font-size="9" letter-spacing="2">PEAK DAY</text>
  <text x="576" y="590" fill="#e6edf3" font-size="16" font-weight="600">WED</text>
  <text x="32" y="622" fill="#6e7681" font-size="9" letter-spacing="2">PEAK HOUR</text>
  <text x="32" y="646" fill="#e6edf3" font-size="16" font-weight="600">17:00</text>
  <text x="304" y="622" fill="#6e7681" font-size="9" letter-spacing="2">LONGEST GAP</text>
  <text x="304" y="646" fill="#e6edf3" font-size="16" font-weight="600">13 days</text>
  <text x="576" y="622" fill="#6e7681" font-size="9" letter-spacing="2">LAST COMMIT</text>
  <text x="576" y="646" fill="#e6edf3" font-size="16" font-weight="600">3h ago</text>
  
  <line x1="32" y1="686" x2="848" y2="686" stroke="#21262d" stroke-width="0.5"/>
  <text x="32" y="710" fill="#484f58" font-size="10" letter-spacing="1">// telemetry · auto-generated · github actions</text>
  <text x="848" y="710" fill="#484f58" font-size="10" letter-spacing="1" text-anchor="end">↻ 2026-09-02</text>
</svg>
