<svg xmlns="http://www.w3.org/2000/svg" width="880" height="726" viewBox="0 0 880 726" font-family="'Courier New', 'SF Mono', Consolas, monospace">
  <defs>
    <pattern id="sl-priv" width="3" height="3" patternUnits="userSpaceOnUse">
      <rect width="3" height="1" fill="#ffffff" opacity="0.025"/>
    </pattern>
    <linearGradient id="hdr-priv" x1="0" y1="0" x2="1" y2="0">
      <stop offset="0%" stop-color="#161b22"/>
      <stop offset="100%" stop-color="#0d1117"/>
    </linearGradient>
  </defs>
  <rect width="880" height="726" rx="8" fill="#0d1117"/>
  <rect width="880" height="726" rx="8" fill="url(#sl-priv)"/>
  <rect x="0.5" y="0.5" width="879" height="725" rx="8" fill="none" stroke="#21262d" stroke-width="1"/>
  
  <rect x="0" y="0" width="880" height="44" rx="8" fill="url(#hdr-priv)"/>
  <rect x="0" y="38" width="880" height="6" fill="#0d1117"/>
  <line x1="0" y1="44" x2="880" y2="44" stroke="#e6edf3" stroke-width="0.6" opacity="0.55"/>
  <text x="20" y="28" fill="#e6edf3" font-size="13" letter-spacing="2">// TELEMETRY · PRIVATE</text>
  <text x="860" y="28" fill="#e6edf3" font-size="11" text-anchor="end" letter-spacing="1" opacity="0.75">[CLASSIFIED]</text>
  
  <text x="440" y="120" font-size="64" font-weight="700" fill="#ffffff" text-anchor="middle" letter-spacing="2">3,328</text>
  <text x="440" y="145" font-size="11" fill="#7d8590" text-anchor="middle" letter-spacing="3">COMMITS · LAST 365 DAYS</text>
  
  <text x="32" y="195" fill="#6e7681" font-size="10" letter-spacing="2">ACTIVITY · 52 WEEKS</text>
  <rect x="52" y="290" width="11" height="0" rx="1" fill="#e6edf3" opacity="0.30"/><rect x="67" y="290" width="11" height="0" rx="1" fill="#e6edf3" opacity="0.30"/><rect x="82" y="290" width="11" height="0" rx="1" fill="#e6edf3" opacity="0.30"/><rect x="97" y="290" width="11" height="0" rx="1" fill="#e6edf3" opacity="0.30"/><rect x="112" y="290" width="11" height="0" rx="1" fill="#e6edf3" opacity="0.30"/><rect x="127" y="290" width="11" height="0" rx="1" fill="#e6edf3" opacity="0.30"/><rect x="142" y="290" width="11" height="0" rx="1" fill="#e6edf3" opacity="0.30"/><rect x="157" y="290" width="11" height="0" rx="1" fill="#e6edf3" opacity="0.30"/><rect x="172" y="290" width="11" height="0" rx="1" fill="#e6edf3" opacity="0.30"/><rect x="187" y="290" width="11" height="0" rx="1" fill="#e6edf3" opacity="0.30"/><rect x="202" y="290" width="11" height="0" rx="1" fill="#e6edf3" opacity="0.30"/><rect x="217" y="290" width="11" height="0" rx="1" fill="#e6edf3" opacity="0.30"/><rect x="232" y="290" width="11" height="0" rx="1" fill="#e6edf3" opacity="0.30"/><rect x="247" y="290" width="11" height="0" rx="1" fill="#e6edf3" opacity="0.30"/><rect x="262" y="290" width="11" height="0" rx="1" fill="#e6edf3" opacity="0.30"/><rect x="277" y="290" width="11" height="0" rx="1" fill="#e6edf3" opacity="0.30"/><rect x="292" y="290" width="11" height="0" rx="1" fill="#e6edf3" opacity="0.30"/><rect x="307" y="290" width="11" height="0" rx="1" fill="#e6edf3" opacity="0.30"/><rect x="322" y="290" width="11" height="0" rx="1" fill="#e6edf3" opacity="0.30"/><rect x="337" y="290" width="11" height="0" rx="1" fill="#e6edf3" opacity="0.30"/><rect x="352" y="290" width="11" height="0" rx="1" fill="#e6edf3" opacity="0.30"/><rect x="367" y="290" width="11" height="0" rx="1" fill="#e6edf3" opacity="0.30"/><rect x="382" y="290" width="11" height="0" rx="1" fill="#e6edf3" opacity="0.30"/><rect x="397" y="290" width="11" height="0" rx="1" fill="#e6edf3" opacity="0.30"/><rect x="412" y="290" width="11" height="0" rx="1" fill="#e6edf3" opacity="0.30"/><rect x="427" y="290" width="11" height="0" rx="1" fill="#e6edf3" opacity="0.30"/><rect x="442" y="290" width="11" height="0" rx="1" fill="#e6edf3" opacity="0.30"/><rect x="457" y="290" width="11" height="0" rx="1" fill="#e6edf3" opacity="0.30"/><rect x="472" y="290" width="11" height="0" rx="1" fill="#e6edf3" opacity="0.30"/><rect x="487" y="290" width="11" height="0" rx="1" fill="#e6edf3" opacity="0.30"/><rect x="502" y="290" width="11" height="0" rx="1" fill="#e6edf3" opacity="0.30"/><rect x="517" y="290" width="11" height="0" rx="1" fill="#e6edf3" opacity="0.30"/><rect x="532" y="288" width="11" height="2" rx="1" fill="#e6edf3" opacity="0.30"/><rect x="547" y="290" width="11" height="0" rx="1" fill="#e6edf3" opacity="0.30"/><rect x="562" y="287.22972972972974" width="11" height="2.77027027027027" rx="1" fill="#e6edf3" opacity="0.32"/><rect x="577" y="274.6621621621622" width="11" height="15.337837837837839" rx="1" fill="#e6edf3" opacity="0.43"/><rect x="592" y="210" width="11" height="80" rx="1" fill="#e6edf3" opacity="1.00"/><rect x="607" y="267.1621621621622" width="11" height="22.83783783783784" rx="1" fill="#e6edf3" opacity="0.50"/><rect x="622" y="280.94594594594594" width="11" height="9.054054054054054" rx="1" fill="#e6edf3" opacity="0.38"/><rect x="637" y="284.1216216216216" width="11" height="5.878378378378378" rx="1" fill="#e6edf3" opacity="0.35"/><rect x="652" y="270.7432432432432" width="11" height="19.256756756756758" rx="1" fill="#e6edf3" opacity="0.47"/><rect x="667" y="274.5945945945946" width="11" height="15.405405405405405" rx="1" fill="#e6edf3" opacity="0.43"/><rect x="682" y="271.4189189189189" width="11" height="18.58108108108108" rx="1" fill="#e6edf3" opacity="0.46"/><rect x="697" y="288" width="11" height="2" rx="1" fill="#e6edf3" opacity="0.30"/><rect x="712" y="290" width="11" height="0" rx="1" fill="#e6edf3" opacity="0.30"/><rect x="727" y="285.3378378378378" width="11" height="4.662162162162162" rx="1" fill="#e6edf3" opacity="0.34"/><rect x="742" y="287.56756756756755" width="11" height="2.4324324324324325" rx="1" fill="#e6edf3" opacity="0.32"/><rect x="757" y="288" width="11" height="2" rx="1" fill="#e6edf3" opacity="0.32"/><rect x="772" y="276.7567567567568" width="11" height="13.243243243243244" rx="1" fill="#e6edf3" opacity="0.42"/><rect x="787" y="286.68918918918916" width="11" height="3.310810810810811" rx="1" fill="#e6edf3" opacity="0.33"/><rect x="802" y="287.43243243243245" width="11" height="2.5675675675675675" rx="1" fill="#e6edf3" opacity="0.32"/><rect x="817" y="282.43243243243245" width="11" height="7.567567567567568" rx="1" fill="#e6edf3" opacity="0.37"/>
  <line x1="52" y1="294" x2="828" y2="294" stroke="#21262d" stroke-width="0.5"/>
  <text x="52" y="308" fill="#484f58" font-size="9">52w ago</text>
  <text x="828" y="308" fill="#484f58" font-size="9" text-anchor="end">today</text>
  
  <text x="32" y="328" fill="#6e7681" font-size="10" letter-spacing="2">DISTRIBUTION · WEEKDAY</text>
  
  <text x="32" y="360" fill="#7d8590" font-size="11" letter-spacing="2">MON</text>
  <rect x="76" y="351" width="308" height="6" rx="3" fill="#161b22"/>
  <rect x="76" y="351" width="263.38718662952647" height="6" rx="3" fill="#e6edf3" opacity="0.93"/>
  <text x="424" y="360" fill="#e6edf3" font-size="11" text-anchor="end">614</text>
  <text x="32" y="382" fill="#7d8590" font-size="11" letter-spacing="2">TUE</text>
  <rect x="76" y="373" width="308" height="6" rx="3" fill="#161b22"/>
  <rect x="76" y="373" width="187.88857938718664" height="6" rx="3" fill="#e6edf3" opacity="0.81"/>
  <text x="424" y="382" fill="#e6edf3" font-size="11" text-anchor="end">438</text>
  <text x="32" y="404" fill="#7d8590" font-size="11" letter-spacing="2">WED</text>
  <rect x="76" y="395" width="308" height="6" rx="3" fill="#161b22"/>
  <rect x="76" y="395" width="308" height="6" rx="3" fill="#e6edf3" opacity="1.00"/>
  <text x="424" y="404" fill="#e6edf3" font-size="11" text-anchor="end">718</text>
  <text x="32" y="426" fill="#7d8590" font-size="11" letter-spacing="2">THU</text>
  <rect x="76" y="417" width="308" height="6" rx="3" fill="#161b22"/>
  <rect x="76" y="417" width="198.18384401114207" height="6" rx="3" fill="#e6edf3" opacity="0.82"/>
  <text x="424" y="426" fill="#e6edf3" font-size="11" text-anchor="end">462</text>
  <text x="32" y="448" fill="#7d8590" font-size="11" letter-spacing="2">FRI</text>
  <rect x="76" y="439" width="308" height="6" rx="3" fill="#161b22"/>
  <rect x="76" y="439" width="160.86350974930363" height="6" rx="3" fill="#e6edf3" opacity="0.76"/>
  <text x="424" y="448" fill="#e6edf3" font-size="11" text-anchor="end">375</text>
  <text x="32" y="470" fill="#7d8590" font-size="11" letter-spacing="2">SAT</text>
  <rect x="76" y="461" width="308" height="6" rx="3" fill="#161b22"/>
  <rect x="76" y="461" width="141.13091922005572" height="6" rx="3" fill="#e6edf3" opacity="0.73"/>
  <text x="424" y="470" fill="#e6edf3" font-size="11" text-anchor="end">329</text>
  <text x="32" y="492" fill="#7d8590" font-size="11" letter-spacing="2">SUN</text>
  <rect x="76" y="483" width="308" height="6" rx="3" fill="#161b22"/>
  <rect x="76" y="483" width="168.15598885793872" height="6" rx="3" fill="#e6edf3" opacity="0.77"/>
  <text x="424" y="492" fill="#e6edf3" font-size="11" text-anchor="end">392</text>
  
  <text x="456" y="328" fill="#6e7681" font-size="10" letter-spacing="2">CIRCADIAN · 24H</text>
  <rect x="474" y="389.99233716475095" width="11" height="38.00766283524904" rx="1" fill="#e6edf3" opacity="0.63"/><rect x="489" y="397.3486590038314" width="11" height="30.651340996168585" rx="1" fill="#e6edf3" opacity="0.57"/><rect x="504" y="412.67432950191574" width="11" height="15.325670498084293" rx="1" fill="#e6edf3" opacity="0.43"/><rect x="519" y="414.51340996168585" width="11" height="13.486590038314176" rx="1" fill="#e6edf3" opacity="0.42"/><rect x="534" y="424.62835249042143" width="11" height="3.371647509578544" rx="1" fill="#e6edf3" opacity="0.33"/><rect x="549" y="425.8544061302682" width="11" height="2.1455938697318007" rx="1" fill="#e6edf3" opacity="0.32"/><rect x="564" y="420.03065134099614" width="11" height="7.969348659003831" rx="1" fill="#e6edf3" opacity="0.37"/><rect x="579" y="408.07662835249045" width="11" height="19.923371647509576" rx="1" fill="#e6edf3" opacity="0.47"/><rect x="594" y="395.5095785440613" width="11" height="32.490421455938694" rx="1" fill="#e6edf3" opacity="0.58"/><rect x="609" y="400.41379310344826" width="11" height="27.586206896551726" rx="1" fill="#e6edf3" opacity="0.54"/><rect x="624" y="395.81609195402297" width="11" height="32.18390804597701" rx="1" fill="#e6edf3" opacity="0.58"/><rect x="639" y="384.16858237547893" width="11" height="43.831417624521066" rx="1" fill="#e6edf3" opacity="0.68"/><rect x="654" y="356.2758620689655" width="11" height="71.72413793103448" rx="1" fill="#e6edf3" opacity="0.93"/><rect x="669" y="374.6666666666667" width="11" height="53.33333333333333" rx="1" fill="#e6edf3" opacity="0.77"/><rect x="684" y="370.0689655172414" width="11" height="57.93103448275862" rx="1" fill="#e6edf3" opacity="0.81"/><rect x="699" y="372.2145593869732" width="11" height="55.78544061302682" rx="1" fill="#e6edf3" opacity="0.79"/><rect x="714" y="358.11494252873564" width="11" height="69.88505747126437" rx="1" fill="#e6edf3" opacity="0.91"/><rect x="729" y="348" width="11" height="80" rx="1" fill="#e6edf3" opacity="1.00"/><rect x="744" y="357.50191570881225" width="11" height="70.49808429118774" rx="1" fill="#e6edf3" opacity="0.92"/><rect x="759" y="366.39080459770116" width="11" height="61.609195402298845" rx="1" fill="#e6edf3" opacity="0.84"/><rect x="774" y="356.2758620689655" width="11" height="71.72413793103448" rx="1" fill="#e6edf3" opacity="0.93"/><rect x="789" y="366.69731800766283" width="11" height="61.30268199233717" rx="1" fill="#e6edf3" opacity="0.84"/><rect x="804" y="375.27969348659" width="11" height="52.720306513409966" rx="1" fill="#e6edf3" opacity="0.76"/><rect x="819" y="381.40996168582376" width="11" height="46.59003831417625" rx="1" fill="#e6edf3" opacity="0.71"/>
  <line x1="474" y1="432" x2="830" y2="432" stroke="#21262d" stroke-width="0.5"/>
  <text x="474" y="446" fill="#484f58" font-size="9">00h</text>
  <text x="652" y="446" fill="#484f58" font-size="9" text-anchor="middle">12h</text>
  <text x="830" y="446" fill="#484f58" font-size="9" text-anchor="end">24h</text>
  
  <text x="32" y="530" fill="#6e7681" font-size="10" letter-spacing="2">STATS</text>
  
  <text x="32" y="566" fill="#6e7681" font-size="9" letter-spacing="2">REPOS</text>
  <text x="32" y="590" fill="#e6edf3" font-size="16" font-weight="600">5</text>
  <text x="304" y="566" fill="#6e7681" font-size="9" letter-spacing="2">AVG / DAY</text>
  <text x="304" y="590" fill="#e6edf3" font-size="16" font-weight="600">9.1</text>
  <text x="576" y="566" fill="#6e7681" font-size="9" letter-spacing="2">PEAK DAY</text>
  <text x="576" y="590" fill="#e6edf3" font-size="16" font-weight="600">WED</text>
  <text x="32" y="622" fill="#6e7681" font-size="9" letter-spacing="2">PEAK HOUR</text>
  <text x="32" y="646" fill="#e6edf3" font-size="16" font-weight="600">17:00</text>
  <text x="304" y="622" fill="#6e7681" font-size="9" letter-spacing="2">LONGEST GAP</text>
  <text x="304" y="646" fill="#e6edf3" font-size="16" font-weight="600">13 days</text>
  <text x="576" y="622" fill="#6e7681" font-size="9" letter-spacing="2">LAST COMMIT</text>
  <text x="576" y="646" fill="#e6edf3" font-size="16" font-weight="600">1d ago</text>
  
  <line x1="32" y1="686" x2="848" y2="686" stroke="#21262d" stroke-width="0.5"/>
  <text x="32" y="710" fill="#484f58" font-size="10" letter-spacing="1">// telemetry · auto-generated · github actions</text>
  <text x="848" y="710" fill="#484f58" font-size="10" letter-spacing="1" text-anchor="end">↻ 2026-09-05</text>
</svg>
