<svg xmlns="http://www.w3.org/2000/svg" width="880" height="726" viewBox="0 0 880 726" font-family="'Courier New', 'SF Mono', Consolas, monospace">
  <defs>
    <pattern id="sl-priv" width="3" height="3" patternUnits="userSpaceOnUse">
      <rect width="3" height="1" fill="#ffffff" opacity="0.025"/>
    </pattern>
    <linearGradient id="hdr-priv" x1="0" y1="0" x2="1" y2="0">
      <stop offset="0%" stop-color="#161b22"/>
      <stop offset="100%" stop-color="#0d1117"/>
    </linearGradient>
  </defs>
  <rect width="880" height="726" rx="8" fill="#0d1117"/>
  <rect width="880" height="726" rx="8" fill="url(#sl-priv)"/>
  <rect x="0.5" y="0.5" width="879" height="725" rx="8" fill="none" stroke="#21262d" stroke-width="1"/>
  
  <rect x="0" y="0" width="880" height="44" rx="8" fill="url(#hdr-priv)"/>
  <rect x="0" y="38" width="880" height="6" fill="#0d1117"/>
  <line x1="0" y1="44" x2="880" y2="44" stroke="#e6edf3" stroke-width="0.6" opacity="0.55"/>
  <text x="20" y="28" fill="#e6edf3" font-size="13" letter-spacing="2">// TELEMETRY · PRIVATE</text>
  <text x="860" y="28" fill="#e6edf3" font-size="11" text-anchor="end" letter-spacing="1" opacity="0.75">[CLASSIFIED]</text>
  
  <text x="440" y="120" font-size="64" font-weight="700" fill="#ffffff" text-anchor="middle" letter-spacing="2">3,680</text>
  <text x="440" y="145" font-size="11" fill="#7d8590" text-anchor="middle" letter-spacing="3">COMMITS · LAST 365 DAYS</text>
  
  <text x="32" y="195" fill="#6e7681" font-size="10" letter-spacing="2">ACTIVITY · 52 WEEKS</text>
  <rect x="52" y="290" width="11" height="0" rx="1" fill="#e6edf3" opacity="0.30"/><rect x="67" y="290" width="11" height="0" rx="1" fill="#e6edf3" opacity="0.30"/><rect x="82" y="290" width="11" height="0" rx="1" fill="#e6edf3" opacity="0.30"/><rect x="97" y="290" width="11" height="0" rx="1" fill="#e6edf3" opacity="0.30"/><rect x="112" y="290" width="11" height="0" rx="1" fill="#e6edf3" opacity="0.30"/><rect x="127" y="290" width="11" height="0" rx="1" fill="#e6edf3" opacity="0.30"/><rect x="142" y="290" width="11" height="0" rx="1" fill="#e6edf3" opacity="0.30"/><rect x="157" y="290" width="11" height="0" rx="1" fill="#e6edf3" opacity="0.30"/><rect x="172" y="290" width="11" height="0" rx="1" fill="#e6edf3" opacity="0.30"/><rect x="187" y="290" width="11" height="0" rx="1" fill="#e6edf3" opacity="0.30"/><rect x="202" y="290" width="11" height="0" rx="1" fill="#e6edf3" opacity="0.30"/><rect x="217" y="290" width="11" height="0" rx="1" fill="#e6edf3" opacity="0.30"/><rect x="232" y="290" width="11" height="0" rx="1" fill="#e6edf3" opacity="0.30"/><rect x="247" y="290" width="11" height="0" rx="1" fill="#e6edf3" opacity="0.30"/><rect x="262" y="290" width="11" height="0" rx="1" fill="#e6edf3" opacity="0.30"/><rect x="277" y="290" width="11" height="0" rx="1" fill="#e6edf3" opacity="0.30"/><rect x="292" y="290" width="11" height="0" rx="1" fill="#e6edf3" opacity="0.30"/><rect x="307" y="290" width="11" height="0" rx="1" fill="#e6edf3" opacity="0.30"/><rect x="322" y="290" width="11" height="0" rx="1" fill="#e6edf3" opacity="0.30"/><rect x="337" y="290" width="11" height="0" rx="1" fill="#e6edf3" opacity="0.30"/><rect x="352" y="290" width="11" height="0" rx="1" fill="#e6edf3" opacity="0.30"/><rect x="367" y="290" width="11" height="0" rx="1" fill="#e6edf3" opacity="0.30"/><rect x="382" y="290" width="11" height="0" rx="1" fill="#e6edf3" opacity="0.30"/><rect x="397" y="290" width="11" height="0" rx="1" fill="#e6edf3" opacity="0.30"/><rect x="412" y="290" width="11" height="0" rx="1" fill="#e6edf3" opacity="0.30"/><rect x="427" y="290" width="11" height="0" rx="1" fill="#e6edf3" opacity="0.30"/><rect x="442" y="290" width="11" height="0" rx="1" fill="#e6edf3" opacity="0.30"/><rect x="457" y="290" width="11" height="0" rx="1" fill="#e6edf3" opacity="0.30"/><rect x="472" y="290" width="11" height="0" rx="1" fill="#e6edf3" opacity="0.30"/><rect x="487" y="290" width="11" height="0" rx="1" fill="#e6edf3" opacity="0.30"/><rect x="502" y="290" width="11" height="0" rx="1" fill="#e6edf3" opacity="0.30"/><rect x="517" y="288" width="11" height="2" rx="1" fill="#e6edf3" opacity="0.30"/><rect x="532" y="290" width="11" height="0" rx="1" fill="#e6edf3" opacity="0.30"/><rect x="547" y="288" width="11" height="2" rx="1" fill="#e6edf3" opacity="0.31"/><rect x="562" y="278.14551907719607" width="11" height="11.854480922803905" rx="1" fill="#e6edf3" opacity="0.40"/><rect x="577" y="210" width="11" height="80" rx="1" fill="#e6edf3" opacity="1.00"/><rect x="592" y="261.74800354924577" width="11" height="28.251996450754216" rx="1" fill="#e6edf3" opacity="0.55"/><rect x="607" y="274.59627329192546" width="11" height="15.403726708074535" rx="1" fill="#e6edf3" opacity="0.43"/><rect x="622" y="284.74711623779945" width="11" height="5.252883762200532" rx="1" fill="#e6edf3" opacity="0.35"/><rect x="637" y="270.6921029281278" width="11" height="19.307897071872226" rx="1" fill="#e6edf3" opacity="0.47"/><rect x="652" y="280.84294587400177" width="11" height="9.157054125998226" rx="1" fill="#e6edf3" opacity="0.38"/><rect x="667" y="261.74800354924577" width="11" height="28.251996450754216" rx="1" fill="#e6edf3" opacity="0.55"/><rect x="682" y="288" width="11" height="2" rx="1" fill="#e6edf3" opacity="0.30"/><rect x="697" y="290" width="11" height="0" rx="1" fill="#e6edf3" opacity="0.30"/><rect x="712" y="285.1020408163265" width="11" height="4.8979591836734695" rx="1" fill="#e6edf3" opacity="0.34"/><rect x="727" y="287.7994676131322" width="11" height="2.2005323868677906" rx="1" fill="#e6edf3" opacity="0.32"/><rect x="742" y="288" width="11" height="2" rx="1" fill="#e6edf3" opacity="0.31"/><rect x="757" y="276.79680567879325" width="11" height="13.203194321206745" rx="1" fill="#e6edf3" opacity="0.42"/><rect x="772" y="284.4631765749778" width="11" height="5.536823425022183" rx="1" fill="#e6edf3" opacity="0.35"/><rect x="787" y="288" width="11" height="2" rx="1" fill="#e6edf3" opacity="0.31"/><rect x="802" y="282.54658385093165" width="11" height="7.453416149068323" rx="1" fill="#e6edf3" opacity="0.37"/><rect x="817" y="262.4578527062999" width="11" height="27.54214729370009" rx="1" fill="#e6edf3" opacity="0.54"/>
  <line x1="52" y1="294" x2="828" y2="294" stroke="#21262d" stroke-width="0.5"/>
  <text x="52" y="308" fill="#484f58" font-size="9">52w ago</text>
  <text x="828" y="308" fill="#484f58" font-size="9" text-anchor="end">today</text>
  
  <text x="32" y="328" fill="#6e7681" font-size="10" letter-spacing="2">DISTRIBUTION · WEEKDAY</text>
  
  <text x="32" y="360" fill="#7d8590" font-size="11" letter-spacing="2">MON</text>
  <rect x="76" y="351" width="308" height="6" rx="3" fill="#161b22"/>
  <rect x="76" y="351" width="267.1623296158612" height="6" rx="3" fill="#e6edf3" opacity="0.93"/>
  <text x="424" y="360" fill="#e6edf3" font-size="11" text-anchor="end">700</text>
  <text x="32" y="382" fill="#7d8590" font-size="11" letter-spacing="2">TUE</text>
  <rect x="76" y="373" width="308" height="6" rx="3" fill="#161b22"/>
  <rect x="76" y="373" width="192.35687732342006" height="6" rx="3" fill="#e6edf3" opacity="0.81"/>
  <text x="424" y="382" fill="#e6edf3" font-size="11" text-anchor="end">504</text>
  <text x="32" y="404" fill="#7d8590" font-size="11" letter-spacing="2">WED</text>
  <rect x="76" y="395" width="308" height="6" rx="3" fill="#161b22"/>
  <rect x="76" y="395" width="308" height="6" rx="3" fill="#e6edf3" opacity="1.00"/>
  <text x="424" y="404" fill="#e6edf3" font-size="11" text-anchor="end">807</text>
  <text x="32" y="426" fill="#7d8590" font-size="11" letter-spacing="2">THU</text>
  <rect x="76" y="417" width="308" height="6" rx="3" fill="#161b22"/>
  <rect x="76" y="417" width="205.33333333333331" height="6" rx="3" fill="#e6edf3" opacity="0.83"/>
  <text x="424" y="426" fill="#e6edf3" font-size="11" text-anchor="end">538</text>
  <text x="32" y="448" fill="#7d8590" font-size="11" letter-spacing="2">FRI</text>
  <rect x="76" y="439" width="308" height="6" rx="3" fill="#161b22"/>
  <rect x="76" y="439" width="143.50433705080545" height="6" rx="3" fill="#e6edf3" opacity="0.73"/>
  <text x="424" y="448" fill="#e6edf3" font-size="11" text-anchor="end">376</text>
  <text x="32" y="470" fill="#7d8590" font-size="11" letter-spacing="2">SAT</text>
  <rect x="76" y="461" width="308" height="6" rx="3" fill="#161b22"/>
  <rect x="76" y="461" width="137.01610904584882" height="6" rx="3" fill="#e6edf3" opacity="0.72"/>
  <text x="424" y="470" fill="#e6edf3" font-size="11" text-anchor="end">359</text>
  <text x="32" y="492" fill="#7d8590" font-size="11" letter-spacing="2">SUN</text>
  <rect x="76" y="483" width="308" height="6" rx="3" fill="#161b22"/>
  <rect x="76" y="483" width="151.1375464684015" height="6" rx="3" fill="#e6edf3" opacity="0.75"/>
  <text x="424" y="492" fill="#e6edf3" font-size="11" text-anchor="end">396</text>
  
  <text x="456" y="328" fill="#6e7681" font-size="10" letter-spacing="2">CIRCADIAN · 24H</text>
  <rect x="474" y="389.5547703180212" width="11" height="38.445229681978795" rx="1" fill="#e6edf3" opacity="0.64"/><rect x="489" y="395.4911660777385" width="11" height="32.50883392226149" rx="1" fill="#e6edf3" opacity="0.58"/><rect x="504" y="413.58303886925796" width="11" height="14.416961130742049" rx="1" fill="#e6edf3" opacity="0.43"/><rect x="519" y="415.2791519434629" width="11" height="12.720848056537102" rx="1" fill="#e6edf3" opacity="0.41"/><rect x="534" y="424.8904593639576" width="11" height="3.1095406360424027" rx="1" fill="#e6edf3" opacity="0.33"/><rect x="549" y="426" width="11" height="2" rx="1" fill="#e6edf3" opacity="0.32"/><rect x="564" y="420.65017667844523" width="11" height="7.34982332155477" rx="1" fill="#e6edf3" opacity="0.36"/><rect x="579" y="409.62544169611306" width="11" height="18.374558303886925" rx="1" fill="#e6edf3" opacity="0.46"/><rect x="594" y="398.03533568904595" width="11" height="29.964664310954063" rx="1" fill="#e6edf3" opacity="0.56"/><rect x="609" y="402.5583038869258" width="11" height="25.441696113074205" rx="1" fill="#e6edf3" opacity="0.52"/><rect x="624" y="395.773851590106" width="11" height="32.226148409893995" rx="1" fill="#e6edf3" opacity="0.58"/><rect x="639" y="384.1837455830389" width="11" height="43.81625441696113" rx="1" fill="#e6edf3" opacity="0.68"/><rect x="654" y="354.2190812720848" width="11" height="73.78091872791519" rx="1" fill="#e6edf3" opacity="0.95"/><rect x="669" y="374.0070671378092" width="11" height="53.99293286219081" rx="1" fill="#e6edf3" opacity="0.77"/><rect x="684" y="367.7879858657244" width="11" height="60.21201413427562" rx="1" fill="#e6edf3" opacity="0.83"/><rect x="699" y="370.8975265017668" width="11" height="57.10247349823321" rx="1" fill="#e6edf3" opacity="0.80"/><rect x="714" y="353.6537102473498" width="11" height="74.34628975265018" rx="1" fill="#e6edf3" opacity="0.95"/><rect x="729" y="348" width="11" height="80" rx="1" fill="#e6edf3" opacity="1.00"/><rect x="744" y="357.8939929328622" width="11" height="70.10600706713781" rx="1" fill="#e6edf3" opacity="0.91"/><rect x="759" y="363.8303886925795" width="11" height="64.1696113074205" rx="1" fill="#e6edf3" opacity="0.86"/><rect x="774" y="356.19787985865725" width="11" height="71.80212014134275" rx="1" fill="#e6edf3" opacity="0.93"/><rect x="789" y="361.56890459363956" width="11" height="66.43109540636043" rx="1" fill="#e6edf3" opacity="0.88"/><rect x="804" y="370.0494699646643" width="11" height="57.95053003533569" rx="1" fill="#e6edf3" opacity="0.81"/><rect x="819" y="377.96466431095405" width="11" height="50.03533568904594" rx="1" fill="#e6edf3" opacity="0.74"/>
  <line x1="474" y1="432" x2="830" y2="432" stroke="#21262d" stroke-width="0.5"/>
  <text x="474" y="446" fill="#484f58" font-size="9">00h</text>
  <text x="652" y="446" fill="#484f58" font-size="9" text-anchor="middle">12h</text>
  <text x="830" y="446" fill="#484f58" font-size="9" text-anchor="end">24h</text>
  
  <text x="32" y="530" fill="#6e7681" font-size="10" letter-spacing="2">STATS</text>
  
  <text x="32" y="566" fill="#6e7681" font-size="9" letter-spacing="2">REPOS</text>
  <text x="32" y="590" fill="#e6edf3" font-size="16" font-weight="600">5</text>
  <text x="304" y="566" fill="#6e7681" font-size="9" letter-spacing="2">AVG / DAY</text>
  <text x="304" y="590" fill="#e6edf3" font-size="16" font-weight="600">10.1</text>
  <text x="576" y="566" fill="#6e7681" font-size="9" letter-spacing="2">PEAK DAY</text>
  <text x="576" y="590" fill="#e6edf3" font-size="16" font-weight="600">WED</text>
  <text x="32" y="622" fill="#6e7681" font-size="9" letter-spacing="2">PEAK HOUR</text>
  <text x="32" y="646" fill="#e6edf3" font-size="16" font-weight="600">17:00</text>
  <text x="304" y="622" fill="#6e7681" font-size="9" letter-spacing="2">LONGEST GAP</text>
  <text x="304" y="646" fill="#e6edf3" font-size="16" font-weight="600">13 days</text>
  <text x="576" y="622" fill="#6e7681" font-size="9" letter-spacing="2">LAST COMMIT</text>
  <text x="576" y="646" fill="#e6edf3" font-size="16" font-weight="600">23m ago</text>
  
  <line x1="32" y1="686" x2="848" y2="686" stroke="#21262d" stroke-width="0.5"/>
  <text x="32" y="710" fill="#484f58" font-size="10" letter-spacing="1">// telemetry · auto-generated · github actions</text>
  <text x="848" y="710" fill="#484f58" font-size="10" letter-spacing="1" text-anchor="end">↻ 2026-09-10</text>
</svg>
