<svg xmlns="http://www.w3.org/2000/svg" width="880" height="726" viewBox="0 0 880 726" font-family="'Courier New', 'SF Mono', Consolas, monospace">
  <defs>
    <pattern id="sl-priv" width="3" height="3" patternUnits="userSpaceOnUse">
      <rect width="3" height="1" fill="#ffffff" opacity="0.025"/>
    </pattern>
    <linearGradient id="hdr-priv" x1="0" y1="0" x2="1" y2="0">
      <stop offset="0%" stop-color="#161b22"/>
      <stop offset="100%" stop-color="#0d1117"/>
    </linearGradient>
  </defs>
  <rect width="880" height="726" rx="8" fill="#0d1117"/>
  <rect width="880" height="726" rx="8" fill="url(#sl-priv)"/>
  <rect x="0.5" y="0.5" width="879" height="725" rx="8" fill="none" stroke="#21262d" stroke-width="1"/>
  
  <rect x="0" y="0" width="880" height="44" rx="8" fill="url(#hdr-priv)"/>
  <rect x="0" y="38" width="880" height="6" fill="#0d1117"/>
  <line x1="0" y1="44" x2="880" y2="44" stroke="#e6edf3" stroke-width="0.6" opacity="0.55"/>
  <text x="20" y="28" fill="#e6edf3" font-size="13" letter-spacing="2">// TELEMETRY · PRIVATE</text>
  <text x="860" y="28" fill="#e6edf3" font-size="11" text-anchor="end" letter-spacing="1" opacity="0.75">[CLASSIFIED]</text>
  
  <text x="440" y="120" font-size="64" font-weight="700" fill="#ffffff" text-anchor="middle" letter-spacing="2">4,842</text>
  <text x="440" y="145" font-size="11" fill="#7d8590" text-anchor="middle" letter-spacing="3">COMMITS · LAST 365 DAYS</text>
  
  <text x="32" y="195" fill="#6e7681" font-size="10" letter-spacing="2">ACTIVITY · 52 WEEKS</text>
  <rect x="52" y="290" width="11" height="0" rx="1" fill="#e6edf3" opacity="0.30"/><rect x="67" y="290" width="11" height="0" rx="1" fill="#e6edf3" opacity="0.30"/><rect x="82" y="290" width="11" height="0" rx="1" fill="#e6edf3" opacity="0.30"/><rect x="97" y="290" width="11" height="0" rx="1" fill="#e6edf3" opacity="0.30"/><rect x="112" y="290" width="11" height="0" rx="1" fill="#e6edf3" opacity="0.30"/><rect x="127" y="290" width="11" height="0" rx="1" fill="#e6edf3" opacity="0.30"/><rect x="142" y="290" width="11" height="0" rx="1" fill="#e6edf3" opacity="0.30"/><rect x="157" y="290" width="11" height="0" rx="1" fill="#e6edf3" opacity="0.30"/><rect x="172" y="290" width="11" height="0" rx="1" fill="#e6edf3" opacity="0.30"/><rect x="187" y="290" width="11" height="0" rx="1" fill="#e6edf3" opacity="0.30"/><rect x="202" y="290" width="11" height="0" rx="1" fill="#e6edf3" opacity="0.30"/><rect x="217" y="290" width="11" height="0" rx="1" fill="#e6edf3" opacity="0.30"/><rect x="232" y="290" width="11" height="0" rx="1" fill="#e6edf3" opacity="0.30"/><rect x="247" y="290" width="11" height="0" rx="1" fill="#e6edf3" opacity="0.30"/><rect x="262" y="290" width="11" height="0" rx="1" fill="#e6edf3" opacity="0.30"/><rect x="277" y="290" width="11" height="0" rx="1" fill="#e6edf3" opacity="0.30"/><rect x="292" y="290" width="11" height="0" rx="1" fill="#e6edf3" opacity="0.30"/><rect x="307" y="290" width="11" height="0" rx="1" fill="#e6edf3" opacity="0.30"/><rect x="322" y="290" width="11" height="0" rx="1" fill="#e6edf3" opacity="0.30"/><rect x="337" y="290" width="11" height="0" rx="1" fill="#e6edf3" opacity="0.30"/><rect x="352" y="290" width="11" height="0" rx="1" fill="#e6edf3" opacity="0.30"/><rect x="367" y="290" width="11" height="0" rx="1" fill="#e6edf3" opacity="0.30"/><rect x="382" y="290" width="11" height="0" rx="1" fill="#e6edf3" opacity="0.30"/><rect x="397" y="290" width="11" height="0" rx="1" fill="#e6edf3" opacity="0.30"/><rect x="412" y="290" width="11" height="0" rx="1" fill="#e6edf3" opacity="0.30"/><rect x="427" y="290" width="11" height="0" rx="1" fill="#e6edf3" opacity="0.30"/><rect x="442" y="290" width="11" height="0" rx="1" fill="#e6edf3" opacity="0.30"/><rect x="457" y="290" width="11" height="0" rx="1" fill="#e6edf3" opacity="0.30"/><rect x="472" y="288" width="11" height="2" rx="1" fill="#e6edf3" opacity="0.30"/><rect x="487" y="288" width="11" height="2" rx="1" fill="#e6edf3" opacity="0.31"/><rect x="502" y="279.61894953656025" width="11" height="10.381050463439754" rx="1" fill="#e6edf3" opacity="0.39"/><rect x="517" y="210" width="11" height="80" rx="1" fill="#e6edf3" opacity="1.00"/><rect x="532" y="241.22554067971163" width="11" height="48.77445932028836" rx="1" fill="#e6edf3" opacity="0.73"/><rect x="547" y="272.6982492276004" width="11" height="17.30175077239959" rx="1" fill="#e6edf3" opacity="0.45"/><rect x="562" y="286.86920700308957" width="11" height="3.1307929969104014" rx="1" fill="#e6edf3" opacity="0.33"/><rect x="577" y="269.07312049433574" width="11" height="20.92687950566426" rx="1" fill="#e6edf3" opacity="0.48"/><rect x="592" y="274.5932028836251" width="11" height="15.406797116374872" rx="1" fill="#e6edf3" opacity="0.43"/><rect x="607" y="263.80020597322346" width="11" height="26.19979402677652" rx="1" fill="#e6edf3" opacity="0.53"/><rect x="622" y="282.66735324407824" width="11" height="7.33264675592173" rx="1" fill="#e6edf3" opacity="0.36"/><rect x="637" y="290" width="11" height="0" rx="1" fill="#e6edf3" opacity="0.30"/><rect x="652" y="288" width="11" height="2" rx="1" fill="#e6edf3" opacity="0.31"/><rect x="667" y="283.3264675592173" width="11" height="6.673532440782698" rx="1" fill="#e6edf3" opacity="0.36"/><rect x="682" y="288" width="11" height="2" rx="1" fill="#e6edf3" opacity="0.32"/><rect x="697" y="281.7610710607621" width="11" height="8.2389289392379" rx="1" fill="#e6edf3" opacity="0.37"/><rect x="712" y="276.9001029866117" width="11" height="13.09989701338826" rx="1" fill="#e6edf3" opacity="0.41"/><rect x="727" y="288" width="11" height="2" rx="1" fill="#e6edf3" opacity="0.31"/><rect x="742" y="283.2440782698249" width="11" height="6.755921730175078" rx="1" fill="#e6edf3" opacity="0.36"/><rect x="757" y="260.9989701338826" width="11" height="29.001029866117403" rx="1" fill="#e6edf3" opacity="0.55"/><rect x="772" y="260.01029866117403" width="11" height="29.989701338825952" rx="1" fill="#e6edf3" opacity="0.56"/><rect x="787" y="288" width="11" height="2" rx="1" fill="#e6edf3" opacity="0.30"/><rect x="802" y="288" width="11" height="2" rx="1" fill="#e6edf3" opacity="0.31"/><rect x="817" y="220.6282183316169" width="11" height="69.37178166838311" rx="1" fill="#e6edf3" opacity="0.91"/>
  <line x1="52" y1="294" x2="828" y2="294" stroke="#21262d" stroke-width="0.5"/>
  <text x="52" y="308" fill="#484f58" font-size="9">52w ago</text>
  <text x="828" y="308" fill="#484f58" font-size="9" text-anchor="end">today</text>
  
  <text x="32" y="328" fill="#6e7681" font-size="10" letter-spacing="2">DISTRIBUTION · WEEKDAY</text>
  
  <text x="32" y="360" fill="#7d8590" font-size="11" letter-spacing="2">MON</text>
  <rect x="76" y="351" width="308" height="6" rx="3" fill="#161b22"/>
  <rect x="76" y="351" width="253.59782608695653" height="6" rx="3" fill="#e6edf3" opacity="0.91"/>
  <text x="424" y="360" fill="#e6edf3" font-size="11" text-anchor="end">909</text>
  <text x="32" y="382" fill="#7d8590" font-size="11" letter-spacing="2">TUE</text>
  <rect x="76" y="373" width="308" height="6" rx="3" fill="#161b22"/>
  <rect x="76" y="373" width="227.3731884057971" height="6" rx="3" fill="#e6edf3" opacity="0.87"/>
  <text x="424" y="382" fill="#e6edf3" font-size="11" text-anchor="end">815</text>
  <text x="32" y="404" fill="#7d8590" font-size="11" letter-spacing="2">WED</text>
  <rect x="76" y="395" width="308" height="6" rx="3" fill="#161b22"/>
  <rect x="76" y="395" width="308" height="6" rx="3" fill="#e6edf3" opacity="1.00"/>
  <text x="424" y="404" fill="#e6edf3" font-size="11" text-anchor="end">1104</text>
  <text x="32" y="426" fill="#7d8590" font-size="11" letter-spacing="2">THU</text>
  <rect x="76" y="417" width="308" height="6" rx="3" fill="#161b22"/>
  <rect x="76" y="417" width="183.57246376811594" height="6" rx="3" fill="#e6edf3" opacity="0.80"/>
  <text x="424" y="426" fill="#e6edf3" font-size="11" text-anchor="end">658</text>
  <text x="32" y="448" fill="#7d8590" font-size="11" letter-spacing="2">FRI</text>
  <rect x="76" y="439" width="308" height="6" rx="3" fill="#161b22"/>
  <rect x="76" y="439" width="128.61231884057972" height="6" rx="3" fill="#e6edf3" opacity="0.71"/>
  <text x="424" y="448" fill="#e6edf3" font-size="11" text-anchor="end">461</text>
  <text x="32" y="470" fill="#7d8590" font-size="11" letter-spacing="2">SAT</text>
  <rect x="76" y="461" width="308" height="6" rx="3" fill="#161b22"/>
  <rect x="76" y="461" width="118.56884057971014" height="6" rx="3" fill="#e6edf3" opacity="0.69"/>
  <text x="424" y="470" fill="#e6edf3" font-size="11" text-anchor="end">425</text>
  <text x="32" y="492" fill="#7d8590" font-size="11" letter-spacing="2">SUN</text>
  <rect x="76" y="483" width="308" height="6" rx="3" fill="#161b22"/>
  <rect x="76" y="483" width="131.1231884057971" height="6" rx="3" fill="#e6edf3" opacity="0.71"/>
  <text x="424" y="492" fill="#e6edf3" font-size="11" text-anchor="end">470</text>
  
  <text x="456" y="328" fill="#6e7681" font-size="10" letter-spacing="2">CIRCADIAN · 24H</text>
  <rect x="474" y="386.5882352941176" width="11" height="41.411764705882355" rx="1" fill="#e6edf3" opacity="0.66"/><rect x="489" y="380.94117647058823" width="11" height="47.05882352941177" rx="1" fill="#e6edf3" opacity="0.71"/><rect x="504" y="404.94117647058823" width="11" height="23.05882352941176" rx="1" fill="#e6edf3" opacity="0.50"/><rect x="519" y="406.5882352941176" width="11" height="21.41176470588235" rx="1" fill="#e6edf3" opacity="0.49"/><rect x="534" y="417.6470588235294" width="11" height="10.352941176470589" rx="1" fill="#e6edf3" opacity="0.39"/><rect x="549" y="417.4117647058824" width="11" height="10.588235294117647" rx="1" fill="#e6edf3" opacity="0.39"/><rect x="564" y="415.05882352941177" width="11" height="12.941176470588236" rx="1" fill="#e6edf3" opacity="0.41"/><rect x="579" y="410.5882352941176" width="11" height="17.411764705882355" rx="1" fill="#e6edf3" opacity="0.45"/><rect x="594" y="399.05882352941177" width="11" height="28.941176470588236" rx="1" fill="#e6edf3" opacity="0.55"/><rect x="609" y="403.52941176470586" width="11" height="24.47058823529412" rx="1" fill="#e6edf3" opacity="0.51"/><rect x="624" y="398.8235294117647" width="11" height="29.176470588235293" rx="1" fill="#e6edf3" opacity="0.56"/><rect x="639" y="384.70588235294116" width="11" height="43.29411764705882" rx="1" fill="#e6edf3" opacity="0.68"/><rect x="654" y="352.70588235294116" width="11" height="75.29411764705883" rx="1" fill="#e6edf3" opacity="0.96"/><rect x="669" y="363.29411764705884" width="11" height="64.70588235294117" rx="1" fill="#e6edf3" opacity="0.87"/><rect x="684" y="363.05882352941177" width="11" height="64.94117647058823" rx="1" fill="#e6edf3" opacity="0.87"/><rect x="699" y="364.94117647058823" width="11" height="63.05882352941176" rx="1" fill="#e6edf3" opacity="0.85"/><rect x="714" y="357.4117647058823" width="11" height="70.58823529411765" rx="1" fill="#e6edf3" opacity="0.92"/><rect x="729" y="348" width="11" height="80" rx="1" fill="#e6edf3" opacity="1.00"/><rect x="744" y="352.94117647058823" width="11" height="75.05882352941177" rx="1" fill="#e6edf3" opacity="0.96"/><rect x="759" y="363.05882352941177" width="11" height="64.94117647058823" rx="1" fill="#e6edf3" opacity="0.87"/><rect x="774" y="357.6470588235294" width="11" height="70.35294117647058" rx="1" fill="#e6edf3" opacity="0.92"/><rect x="789" y="350.3529411764706" width="11" height="77.6470588235294" rx="1" fill="#e6edf3" opacity="0.98"/><rect x="804" y="360.94117647058823" width="11" height="67.05882352941177" rx="1" fill="#e6edf3" opacity="0.89"/><rect x="819" y="372.47058823529414" width="11" height="55.529411764705884" rx="1" fill="#e6edf3" opacity="0.79"/>
  <line x1="474" y1="432" x2="830" y2="432" stroke="#21262d" stroke-width="0.5"/>
  <text x="474" y="446" fill="#484f58" font-size="9">00h</text>
  <text x="652" y="446" fill="#484f58" font-size="9" text-anchor="middle">12h</text>
  <text x="830" y="446" fill="#484f58" font-size="9" text-anchor="end">24h</text>
  
  <text x="32" y="530" fill="#6e7681" font-size="10" letter-spacing="2">STATS</text>
  
  <text x="32" y="566" fill="#6e7681" font-size="9" letter-spacing="2">REPOS</text>
  <text x="32" y="590" fill="#e6edf3" font-size="16" font-weight="600">9</text>
  <text x="304" y="566" fill="#6e7681" font-size="9" letter-spacing="2">AVG / DAY</text>
  <text x="304" y="590" fill="#e6edf3" font-size="16" font-weight="600">13.3</text>
  <text x="576" y="566" fill="#6e7681" font-size="9" letter-spacing="2">PEAK DAY</text>
  <text x="576" y="590" fill="#e6edf3" font-size="16" font-weight="600">WED</text>
  <text x="32" y="622" fill="#6e7681" font-size="9" letter-spacing="2">PEAK HOUR</text>
  <text x="32" y="646" fill="#e6edf3" font-size="16" font-weight="600">17:00</text>
  <text x="304" y="622" fill="#6e7681" font-size="9" letter-spacing="2">LONGEST GAP</text>
  <text x="304" y="646" fill="#e6edf3" font-size="16" font-weight="600">13 days</text>
  <text x="576" y="622" fill="#6e7681" font-size="9" letter-spacing="2">LAST COMMIT</text>
  <text x="576" y="646" fill="#e6edf3" font-size="16" font-weight="600">just now</text>
  
  <line x1="32" y1="686" x2="848" y2="686" stroke="#21262d" stroke-width="0.5"/>
  <text x="32" y="710" fill="#484f58" font-size="10" letter-spacing="1">// telemetry · auto-generated · github actions</text>
  <text x="848" y="710" fill="#484f58" font-size="10" letter-spacing="1" text-anchor="end">↻ 2026-10-07</text>
</svg>
