<svg xmlns="http://www.w3.org/2000/svg" width="880" height="726" viewBox="0 0 880 726" font-family="'Courier New', 'SF Mono', Consolas, monospace">
  <defs>
    <pattern id="sl-priv" width="3" height="3" patternUnits="userSpaceOnUse">
      <rect width="3" height="1" fill="#ffffff" opacity="0.025"/>
    </pattern>
    <linearGradient id="hdr-priv" x1="0" y1="0" x2="1" y2="0">
      <stop offset="0%" stop-color="#161b22"/>
      <stop offset="100%" stop-color="#0d1117"/>
    </linearGradient>
  </defs>
  <rect width="880" height="726" rx="8" fill="#0d1117"/>
  <rect width="880" height="726" rx="8" fill="url(#sl-priv)"/>
  <rect x="0.5" y="0.5" width="879" height="725" rx="8" fill="none" stroke="#21262d" stroke-width="1"/>
  
  <rect x="0" y="0" width="880" height="44" rx="8" fill="url(#hdr-priv)"/>
  <rect x="0" y="38" width="880" height="6" fill="#0d1117"/>
  <line x1="0" y1="44" x2="880" y2="44" stroke="#e6edf3" stroke-width="0.6" opacity="0.55"/>
  <text x="20" y="28" fill="#e6edf3" font-size="13" letter-spacing="2">// TELEMETRY · PRIVATE</text>
  <text x="860" y="28" fill="#e6edf3" font-size="11" text-anchor="end" letter-spacing="1" opacity="0.75">[CLASSIFIED]</text>
  
  <text x="440" y="120" font-size="64" font-weight="700" fill="#ffffff" text-anchor="middle" letter-spacing="2">3,429</text>
  <text x="440" y="145" font-size="11" fill="#7d8590" text-anchor="middle" letter-spacing="3">COMMITS · LAST 365 DAYS</text>
  
  <text x="32" y="195" fill="#6e7681" font-size="10" letter-spacing="2">ACTIVITY · 52 WEEKS</text>
  <rect x="52" y="290" width="11" height="0" rx="1" fill="#e6edf3" opacity="0.30"/><rect x="67" y="290" width="11" height="0" rx="1" fill="#e6edf3" opacity="0.30"/><rect x="82" y="290" width="11" height="0" rx="1" fill="#e6edf3" opacity="0.30"/><rect x="97" y="290" width="11" height="0" rx="1" fill="#e6edf3" opacity="0.30"/><rect x="112" y="290" width="11" height="0" rx="1" fill="#e6edf3" opacity="0.30"/><rect x="127" y="290" width="11" height="0" rx="1" fill="#e6edf3" opacity="0.30"/><rect x="142" y="290" width="11" height="0" rx="1" fill="#e6edf3" opacity="0.30"/><rect x="157" y="290" width="11" height="0" rx="1" fill="#e6edf3" opacity="0.30"/><rect x="172" y="290" width="11" height="0" rx="1" fill="#e6edf3" opacity="0.30"/><rect x="187" y="290" width="11" height="0" rx="1" fill="#e6edf3" opacity="0.30"/><rect x="202" y="290" width="11" height="0" rx="1" fill="#e6edf3" opacity="0.30"/><rect x="217" y="290" width="11" height="0" rx="1" fill="#e6edf3" opacity="0.30"/><rect x="232" y="290" width="11" height="0" rx="1" fill="#e6edf3" opacity="0.30"/><rect x="247" y="290" width="11" height="0" rx="1" fill="#e6edf3" opacity="0.30"/><rect x="262" y="290" width="11" height="0" rx="1" fill="#e6edf3" opacity="0.30"/><rect x="277" y="290" width="11" height="0" rx="1" fill="#e6edf3" opacity="0.30"/><rect x="292" y="290" width="11" height="0" rx="1" fill="#e6edf3" opacity="0.30"/><rect x="307" y="290" width="11" height="0" rx="1" fill="#e6edf3" opacity="0.30"/><rect x="322" y="290" width="11" height="0" rx="1" fill="#e6edf3" opacity="0.30"/><rect x="337" y="290" width="11" height="0" rx="1" fill="#e6edf3" opacity="0.30"/><rect x="352" y="290" width="11" height="0" rx="1" fill="#e6edf3" opacity="0.30"/><rect x="367" y="290" width="11" height="0" rx="1" fill="#e6edf3" opacity="0.30"/><rect x="382" y="290" width="11" height="0" rx="1" fill="#e6edf3" opacity="0.30"/><rect x="397" y="290" width="11" height="0" rx="1" fill="#e6edf3" opacity="0.30"/><rect x="412" y="290" width="11" height="0" rx="1" fill="#e6edf3" opacity="0.30"/><rect x="427" y="290" width="11" height="0" rx="1" fill="#e6edf3" opacity="0.30"/><rect x="442" y="290" width="11" height="0" rx="1" fill="#e6edf3" opacity="0.30"/><rect x="457" y="290" width="11" height="0" rx="1" fill="#e6edf3" opacity="0.30"/><rect x="472" y="290" width="11" height="0" rx="1" fill="#e6edf3" opacity="0.30"/><rect x="487" y="290" width="11" height="0" rx="1" fill="#e6edf3" opacity="0.30"/><rect x="502" y="290" width="11" height="0" rx="1" fill="#e6edf3" opacity="0.30"/><rect x="517" y="290" width="11" height="0" rx="1" fill="#e6edf3" opacity="0.30"/><rect x="532" y="288" width="11" height="2" rx="1" fill="#e6edf3" opacity="0.30"/><rect x="547" y="290" width="11" height="0" rx="1" fill="#e6edf3" opacity="0.30"/><rect x="562" y="282.43697478991595" width="11" height="7.563025210084033" rx="1" fill="#e6edf3" opacity="0.37"/><rect x="577" y="239.2436974789916" width="11" height="50.7563025210084" rx="1" fill="#e6edf3" opacity="0.74"/><rect x="592" y="210" width="11" height="80" rx="1" fill="#e6edf3" opacity="1.00"/><rect x="607" y="271.1764705882353" width="11" height="18.823529411764707" rx="1" fill="#e6edf3" opacity="0.46"/><rect x="622" y="283.52941176470586" width="11" height="6.470588235294118" rx="1" fill="#e6edf3" opacity="0.36"/><rect x="637" y="276.7226890756302" width="11" height="13.277310924369747" rx="1" fill="#e6edf3" opacity="0.42"/><rect x="652" y="269.2436974789916" width="11" height="20.756302521008404" rx="1" fill="#e6edf3" opacity="0.48"/><rect x="667" y="261.6806722689076" width="11" height="28.31932773109244" rx="1" fill="#e6edf3" opacity="0.55"/><rect x="682" y="280.7563025210084" width="11" height="9.243697478991598" rx="1" fill="#e6edf3" opacity="0.38"/><rect x="697" y="288" width="11" height="2" rx="1" fill="#e6edf3" opacity="0.30"/><rect x="712" y="290" width="11" height="0" rx="1" fill="#e6edf3" opacity="0.30"/><rect x="727" y="283.9495798319328" width="11" height="6.050420168067227" rx="1" fill="#e6edf3" opacity="0.35"/><rect x="742" y="286.6386554621849" width="11" height="3.3613445378151265" rx="1" fill="#e6edf3" opacity="0.33"/><rect x="757" y="286.97478991596637" width="11" height="3.0252100840336134" rx="1" fill="#e6edf3" opacity="0.33"/><rect x="772" y="272.6050420168067" width="11" height="17.39495798319328" rx="1" fill="#e6edf3" opacity="0.45"/><rect x="787" y="288" width="11" height="2" rx="1" fill="#e6edf3" opacity="0.32"/><rect x="802" y="285.21008403361344" width="11" height="4.7899159663865545" rx="1" fill="#e6edf3" opacity="0.34"/><rect x="817" y="273.781512605042" width="11" height="16.218487394957982" rx="1" fill="#e6edf3" opacity="0.44"/>
  <line x1="52" y1="294" x2="828" y2="294" stroke="#21262d" stroke-width="0.5"/>
  <text x="52" y="308" fill="#484f58" font-size="9">52w ago</text>
  <text x="828" y="308" fill="#484f58" font-size="9" text-anchor="end">today</text>
  
  <text x="32" y="328" fill="#6e7681" font-size="10" letter-spacing="2">DISTRIBUTION · WEEKDAY</text>
  
  <text x="32" y="360" fill="#7d8590" font-size="11" letter-spacing="2">MON</text>
  <rect x="76" y="351" width="308" height="6" rx="3" fill="#161b22"/>
  <rect x="76" y="351" width="292.1281337047354" height="6" rx="3" fill="#e6edf3" opacity="0.97"/>
  <text x="424" y="360" fill="#e6edf3" font-size="11" text-anchor="end">681</text>
  <text x="32" y="382" fill="#7d8590" font-size="11" letter-spacing="2">TUE</text>
  <rect x="76" y="373" width="308" height="6" rx="3" fill="#161b22"/>
  <rect x="76" y="373" width="187.88857938718664" height="6" rx="3" fill="#e6edf3" opacity="0.81"/>
  <text x="424" y="382" fill="#e6edf3" font-size="11" text-anchor="end">438</text>
  <text x="32" y="404" fill="#7d8590" font-size="11" letter-spacing="2">WED</text>
  <rect x="76" y="395" width="308" height="6" rx="3" fill="#161b22"/>
  <rect x="76" y="395" width="308" height="6" rx="3" fill="#e6edf3" opacity="1.00"/>
  <text x="424" y="404" fill="#e6edf3" font-size="11" text-anchor="end">718</text>
  <text x="32" y="426" fill="#7d8590" font-size="11" letter-spacing="2">THU</text>
  <rect x="76" y="417" width="308" height="6" rx="3" fill="#161b22"/>
  <rect x="76" y="417" width="198.18384401114207" height="6" rx="3" fill="#e6edf3" opacity="0.82"/>
  <text x="424" y="426" fill="#e6edf3" font-size="11" text-anchor="end">462</text>
  <text x="32" y="448" fill="#7d8590" font-size="11" letter-spacing="2">FRI</text>
  <rect x="76" y="439" width="308" height="6" rx="3" fill="#161b22"/>
  <rect x="76" y="439" width="160.86350974930363" height="6" rx="3" fill="#e6edf3" opacity="0.76"/>
  <text x="424" y="448" fill="#e6edf3" font-size="11" text-anchor="end">375</text>
  <text x="32" y="470" fill="#7d8590" font-size="11" letter-spacing="2">SAT</text>
  <rect x="76" y="461" width="308" height="6" rx="3" fill="#161b22"/>
  <rect x="76" y="461" width="154" height="6" rx="3" fill="#e6edf3" opacity="0.75"/>
  <text x="424" y="470" fill="#e6edf3" font-size="11" text-anchor="end">359</text>
  <text x="32" y="492" fill="#7d8590" font-size="11" letter-spacing="2">SUN</text>
  <rect x="76" y="483" width="308" height="6" rx="3" fill="#161b22"/>
  <rect x="76" y="483" width="169.87186629526462" height="6" rx="3" fill="#e6edf3" opacity="0.78"/>
  <text x="424" y="492" fill="#e6edf3" font-size="11" text-anchor="end">396</text>
  
  <text x="456" y="328" fill="#6e7681" font-size="10" letter-spacing="2">CIRCADIAN · 24H</text>
  <rect x="474" y="390.2813688212928" width="11" height="37.71863117870722" rx="1" fill="#e6edf3" opacity="0.63"/><rect x="489" y="396.97338403041823" width="11" height="31.026615969581748" rx="1" fill="#e6edf3" opacity="0.57"/><rect x="504" y="412.7908745247148" width="11" height="15.20912547528517" rx="1" fill="#e6edf3" opacity="0.43"/><rect x="519" y="414.615969581749" width="11" height="13.38403041825095" rx="1" fill="#e6edf3" opacity="0.42"/><rect x="534" y="424.6539923954373" width="11" height="3.3460076045627374" rx="1" fill="#e6edf3" opacity="0.33"/><rect x="549" y="425.87072243346006" width="11" height="2.129277566539924" rx="1" fill="#e6edf3" opacity="0.32"/><rect x="564" y="420.0912547528517" width="11" height="7.908745247148289" rx="1" fill="#e6edf3" opacity="0.37"/><rect x="579" y="408.22813688212926" width="11" height="19.771863117870723" rx="1" fill="#e6edf3" opacity="0.47"/><rect x="594" y="395.75665399239546" width="11" height="32.243346007604565" rx="1" fill="#e6edf3" opacity="0.58"/><rect x="609" y="400.62357414448667" width="11" height="27.376425855513308" rx="1" fill="#e6edf3" opacity="0.54"/><rect x="624" y="394.84410646387835" width="11" height="33.155893536121674" rx="1" fill="#e6edf3" opacity="0.59"/><rect x="639" y="384.1977186311787" width="11" height="43.8022813688213" rx="1" fill="#e6edf3" opacity="0.68"/><rect x="654" y="354.6920152091255" width="11" height="73.30798479087451" rx="1" fill="#e6edf3" opacity="0.94"/><rect x="669" y="373.8555133079848" width="11" height="54.14448669201521" rx="1" fill="#e6edf3" opacity="0.77"/><rect x="684" y="369.29277566539923" width="11" height="58.70722433460075" rx="1" fill="#e6edf3" opacity="0.81"/><rect x="699" y="371.72623574144484" width="11" height="56.27376425855513" rx="1" fill="#e6edf3" opacity="0.79"/><rect x="714" y="356.82129277566537" width="11" height="71.1787072243346" rx="1" fill="#e6edf3" opacity="0.92"/><rect x="729" y="348" width="11" height="80" rx="1" fill="#e6edf3" opacity="1.00"/><rect x="744" y="355.6045627376426" width="11" height="72.3954372623574" rx="1" fill="#e6edf3" opacity="0.93"/><rect x="759" y="360.77566539923953" width="11" height="67.22433460076046" rx="1" fill="#e6edf3" opacity="0.89"/><rect x="774" y="353.47528517110266" width="11" height="74.52471482889733" rx="1" fill="#e6edf3" opacity="0.95"/><rect x="789" y="360.77566539923953" width="11" height="67.22433460076046" rx="1" fill="#e6edf3" opacity="0.89"/><rect x="804" y="373.8555133079848" width="11" height="54.14448669201521" rx="1" fill="#e6edf3" opacity="0.77"/><rect x="819" y="381.15589353612165" width="11" height="46.844106463878326" rx="1" fill="#e6edf3" opacity="0.71"/>
  <line x1="474" y1="432" x2="830" y2="432" stroke="#21262d" stroke-width="0.5"/>
  <text x="474" y="446" fill="#484f58" font-size="9">00h</text>
  <text x="652" y="446" fill="#484f58" font-size="9" text-anchor="middle">12h</text>
  <text x="830" y="446" fill="#484f58" font-size="9" text-anchor="end">24h</text>
  
  <text x="32" y="530" fill="#6e7681" font-size="10" letter-spacing="2">STATS</text>
  
  <text x="32" y="566" fill="#6e7681" font-size="9" letter-spacing="2">REPOS</text>
  <text x="32" y="590" fill="#e6edf3" font-size="16" font-weight="600">5</text>
  <text x="304" y="566" fill="#6e7681" font-size="9" letter-spacing="2">AVG / DAY</text>
  <text x="304" y="590" fill="#e6edf3" font-size="16" font-weight="600">9.4</text>
  <text x="576" y="566" fill="#6e7681" font-size="9" letter-spacing="2">PEAK DAY</text>
  <text x="576" y="590" fill="#e6edf3" font-size="16" font-weight="600">WED</text>
  <text x="32" y="622" fill="#6e7681" font-size="9" letter-spacing="2">PEAK HOUR</text>
  <text x="32" y="646" fill="#e6edf3" font-size="16" font-weight="600">17:00</text>
  <text x="304" y="622" fill="#6e7681" font-size="9" letter-spacing="2">LONGEST GAP</text>
  <text x="304" y="646" fill="#e6edf3" font-size="16" font-weight="600">13 days</text>
  <text x="576" y="622" fill="#6e7681" font-size="9" letter-spacing="2">LAST COMMIT</text>
  <text x="576" y="646" fill="#e6edf3" font-size="16" font-weight="600">19m ago</text>
  
  <line x1="32" y1="686" x2="848" y2="686" stroke="#21262d" stroke-width="0.5"/>
  <text x="32" y="710" fill="#484f58" font-size="10" letter-spacing="1">// telemetry · auto-generated · github actions</text>
  <text x="848" y="710" fill="#484f58" font-size="10" letter-spacing="1" text-anchor="end">↻ 2026-09-07</text>
</svg>
