<svg xmlns="http://www.w3.org/2000/svg" width="880" height="726" viewBox="0 0 880 726" font-family="'Courier New', 'SF Mono', Consolas, monospace">
  <defs>
    <pattern id="sl-priv" width="3" height="3" patternUnits="userSpaceOnUse">
      <rect width="3" height="1" fill="#ffffff" opacity="0.025"/>
    </pattern>
    <linearGradient id="hdr-priv" x1="0" y1="0" x2="1" y2="0">
      <stop offset="0%" stop-color="#161b22"/>
      <stop offset="100%" stop-color="#0d1117"/>
    </linearGradient>
  </defs>
  <rect width="880" height="726" rx="8" fill="#0d1117"/>
  <rect width="880" height="726" rx="8" fill="url(#sl-priv)"/>
  <rect x="0.5" y="0.5" width="879" height="725" rx="8" fill="none" stroke="#21262d" stroke-width="1"/>
  
  <rect x="0" y="0" width="880" height="44" rx="8" fill="url(#hdr-priv)"/>
  <rect x="0" y="38" width="880" height="6" fill="#0d1117"/>
  <line x1="0" y1="44" x2="880" y2="44" stroke="#e6edf3" stroke-width="0.6" opacity="0.55"/>
  <text x="20" y="28" fill="#e6edf3" font-size="13" letter-spacing="2">// TELEMETRY · PRIVATE</text>
  <text x="860" y="28" fill="#e6edf3" font-size="11" text-anchor="end" letter-spacing="1" opacity="0.75">[CLASSIFIED]</text>
  
  <text x="440" y="120" font-size="64" font-weight="700" fill="#ffffff" text-anchor="middle" letter-spacing="2">3,915</text>
  <text x="440" y="145" font-size="11" fill="#7d8590" text-anchor="middle" letter-spacing="3">COMMITS · LAST 365 DAYS</text>
  
  <text x="32" y="195" fill="#6e7681" font-size="10" letter-spacing="2">ACTIVITY · 52 WEEKS</text>
  <rect x="52" y="290" width="11" height="0" rx="1" fill="#e6edf3" opacity="0.30"/><rect x="67" y="290" width="11" height="0" rx="1" fill="#e6edf3" opacity="0.30"/><rect x="82" y="290" width="11" height="0" rx="1" fill="#e6edf3" opacity="0.30"/><rect x="97" y="290" width="11" height="0" rx="1" fill="#e6edf3" opacity="0.30"/><rect x="112" y="290" width="11" height="0" rx="1" fill="#e6edf3" opacity="0.30"/><rect x="127" y="290" width="11" height="0" rx="1" fill="#e6edf3" opacity="0.30"/><rect x="142" y="290" width="11" height="0" rx="1" fill="#e6edf3" opacity="0.30"/><rect x="157" y="290" width="11" height="0" rx="1" fill="#e6edf3" opacity="0.30"/><rect x="172" y="290" width="11" height="0" rx="1" fill="#e6edf3" opacity="0.30"/><rect x="187" y="290" width="11" height="0" rx="1" fill="#e6edf3" opacity="0.30"/><rect x="202" y="290" width="11" height="0" rx="1" fill="#e6edf3" opacity="0.30"/><rect x="217" y="290" width="11" height="0" rx="1" fill="#e6edf3" opacity="0.30"/><rect x="232" y="290" width="11" height="0" rx="1" fill="#e6edf3" opacity="0.30"/><rect x="247" y="290" width="11" height="0" rx="1" fill="#e6edf3" opacity="0.30"/><rect x="262" y="290" width="11" height="0" rx="1" fill="#e6edf3" opacity="0.30"/><rect x="277" y="290" width="11" height="0" rx="1" fill="#e6edf3" opacity="0.30"/><rect x="292" y="290" width="11" height="0" rx="1" fill="#e6edf3" opacity="0.30"/><rect x="307" y="290" width="11" height="0" rx="1" fill="#e6edf3" opacity="0.30"/><rect x="322" y="290" width="11" height="0" rx="1" fill="#e6edf3" opacity="0.30"/><rect x="337" y="290" width="11" height="0" rx="1" fill="#e6edf3" opacity="0.30"/><rect x="352" y="290" width="11" height="0" rx="1" fill="#e6edf3" opacity="0.30"/><rect x="367" y="290" width="11" height="0" rx="1" fill="#e6edf3" opacity="0.30"/><rect x="382" y="290" width="11" height="0" rx="1" fill="#e6edf3" opacity="0.30"/><rect x="397" y="290" width="11" height="0" rx="1" fill="#e6edf3" opacity="0.30"/><rect x="412" y="290" width="11" height="0" rx="1" fill="#e6edf3" opacity="0.30"/><rect x="427" y="290" width="11" height="0" rx="1" fill="#e6edf3" opacity="0.30"/><rect x="442" y="290" width="11" height="0" rx="1" fill="#e6edf3" opacity="0.30"/><rect x="457" y="290" width="11" height="0" rx="1" fill="#e6edf3" opacity="0.30"/><rect x="472" y="290" width="11" height="0" rx="1" fill="#e6edf3" opacity="0.30"/><rect x="487" y="290" width="11" height="0" rx="1" fill="#e6edf3" opacity="0.30"/><rect x="502" y="290" width="11" height="0" rx="1" fill="#e6edf3" opacity="0.30"/><rect x="517" y="288" width="11" height="2" rx="1" fill="#e6edf3" opacity="0.30"/><rect x="532" y="290" width="11" height="0" rx="1" fill="#e6edf3" opacity="0.30"/><rect x="547" y="284.6407766990291" width="11" height="5.359223300970873" rx="1" fill="#e6edf3" opacity="0.35"/><rect x="562" y="252.33009708737865" width="11" height="37.66990291262136" rx="1" fill="#e6edf3" opacity="0.63"/><rect x="577" y="210" width="11" height="80" rx="1" fill="#e6edf3" opacity="1.00"/><rect x="592" y="267.94174757281553" width="11" height="22.058252427184467" rx="1" fill="#e6edf3" opacity="0.49"/><rect x="607" y="283.86407766990294" width="11" height="6.135922330097088" rx="1" fill="#e6edf3" opacity="0.35"/><rect x="622" y="280.9126213592233" width="11" height="9.087378640776699" rx="1" fill="#e6edf3" opacity="0.38"/><rect x="637" y="267.63106796116506" width="11" height="22.368932038834952" rx="1" fill="#e6edf3" opacity="0.50"/><rect x="652" y="264.4466019417476" width="11" height="25.553398058252426" rx="1" fill="#e6edf3" opacity="0.52"/><rect x="667" y="280.8349514563107" width="11" height="9.16504854368932" rx="1" fill="#e6edf3" opacity="0.38"/><rect x="682" y="288" width="11" height="2" rx="1" fill="#e6edf3" opacity="0.30"/><rect x="697" y="290" width="11" height="0" rx="1" fill="#e6edf3" opacity="0.30"/><rect x="712" y="284.40776699029124" width="11" height="5.592233009708738" rx="1" fill="#e6edf3" opacity="0.35"/><rect x="727" y="286.8932038834951" width="11" height="3.106796116504854" rx="1" fill="#e6edf3" opacity="0.33"/><rect x="742" y="287.20388349514565" width="11" height="2.796116504854369" rx="1" fill="#e6edf3" opacity="0.32"/><rect x="757" y="274.8543689320388" width="11" height="15.145631067961165" rx="1" fill="#e6edf3" opacity="0.43"/><rect x="772" y="287.3592233009709" width="11" height="2.6407766990291264" rx="1" fill="#e6edf3" opacity="0.32"/><rect x="787" y="286.58252427184465" width="11" height="3.4174757281553396" rx="1" fill="#e6edf3" opacity="0.33"/><rect x="802" y="274.31067961165047" width="11" height="15.689320388349515" rx="1" fill="#e6edf3" opacity="0.44"/><rect x="817" y="251.8640776699029" width="11" height="38.13592233009709" rx="1" fill="#e6edf3" opacity="0.63"/>
  <line x1="52" y1="294" x2="828" y2="294" stroke="#21262d" stroke-width="0.5"/>
  <text x="52" y="308" fill="#484f58" font-size="9">52w ago</text>
  <text x="828" y="308" fill="#484f58" font-size="9" text-anchor="end">today</text>
  
  <text x="32" y="328" fill="#6e7681" font-size="10" letter-spacing="2">DISTRIBUTION · WEEKDAY</text>
  
  <text x="32" y="360" fill="#7d8590" font-size="11" letter-spacing="2">MON</text>
  <rect x="76" y="351" width="308" height="6" rx="3" fill="#161b22"/>
  <rect x="76" y="351" width="259.2517985611511" height="6" rx="3" fill="#e6edf3" opacity="0.92"/>
  <text x="424" y="360" fill="#e6edf3" font-size="11" text-anchor="end">702</text>
  <text x="32" y="382" fill="#7d8590" font-size="11" letter-spacing="2">TUE</text>
  <rect x="76" y="373" width="308" height="6" rx="3" fill="#161b22"/>
  <rect x="76" y="373" width="189.45323741007192" height="6" rx="3" fill="#e6edf3" opacity="0.81"/>
  <text x="424" y="382" fill="#e6edf3" font-size="11" text-anchor="end">513</text>
  <text x="32" y="404" fill="#7d8590" font-size="11" letter-spacing="2">WED</text>
  <rect x="76" y="395" width="308" height="6" rx="3" fill="#161b22"/>
  <rect x="76" y="395" width="308" height="6" rx="3" fill="#e6edf3" opacity="1.00"/>
  <text x="424" y="404" fill="#e6edf3" font-size="11" text-anchor="end">834</text>
  <text x="32" y="426" fill="#7d8590" font-size="11" letter-spacing="2">THU</text>
  <rect x="76" y="417" width="308" height="6" rx="3" fill="#161b22"/>
  <rect x="76" y="417" width="224.53717026378897" height="6" rx="3" fill="#e6edf3" opacity="0.86"/>
  <text x="424" y="426" fill="#e6edf3" font-size="11" text-anchor="end">608</text>
  <text x="32" y="448" fill="#7d8590" font-size="11" letter-spacing="2">FRI</text>
  <rect x="76" y="439" width="308" height="6" rx="3" fill="#161b22"/>
  <rect x="76" y="439" width="170.2494004796163" height="6" rx="3" fill="#e6edf3" opacity="0.78"/>
  <text x="424" y="448" fill="#e6edf3" font-size="11" text-anchor="end">461</text>
  <text x="32" y="470" fill="#7d8590" font-size="11" letter-spacing="2">SAT</text>
  <rect x="76" y="461" width="308" height="6" rx="3" fill="#161b22"/>
  <rect x="76" y="461" width="144.3980815347722" height="6" rx="3" fill="#e6edf3" opacity="0.73"/>
  <text x="424" y="470" fill="#e6edf3" font-size="11" text-anchor="end">391</text>
  <text x="32" y="492" fill="#7d8590" font-size="11" letter-spacing="2">SUN</text>
  <rect x="76" y="483" width="308" height="6" rx="3" fill="#161b22"/>
  <rect x="76" y="483" width="149.93764988009593" height="6" rx="3" fill="#e6edf3" opacity="0.74"/>
  <text x="424" y="492" fill="#e6edf3" font-size="11" text-anchor="end">406</text>
  
  <text x="456" y="328" fill="#6e7681" font-size="10" letter-spacing="2">CIRCADIAN · 24H</text>
  <rect x="474" y="388.26490066225165" width="11" height="39.735099337748345" rx="1" fill="#e6edf3" opacity="0.65"/><rect x="489" y="393.82781456953643" width="11" height="34.17218543046358" rx="1" fill="#e6edf3" opacity="0.60"/><rect x="504" y="413.1655629139073" width="11" height="14.834437086092716" rx="1" fill="#e6edf3" opacity="0.43"/><rect x="519" y="415.28476821192055" width="11" height="12.715231788079471" rx="1" fill="#e6edf3" opacity="0.41"/><rect x="534" y="424.55629139072846" width="11" height="3.443708609271523" rx="1" fill="#e6edf3" opacity="0.33"/><rect x="549" y="426" width="11" height="2" rx="1" fill="#e6edf3" opacity="0.32"/><rect x="564" y="421.112582781457" width="11" height="6.887417218543046" rx="1" fill="#e6edf3" opacity="0.36"/><rect x="579" y="410.78145695364236" width="11" height="17.218543046357617" rx="1" fill="#e6edf3" opacity="0.45"/><rect x="594" y="399.9205298013245" width="11" height="28.079470198675498" rx="1" fill="#e6edf3" opacity="0.55"/><rect x="609" y="403.36423841059604" width="11" height="24.635761589403977" rx="1" fill="#e6edf3" opacity="0.52"/><rect x="624" y="396.2119205298013" width="11" height="31.788079470198674" rx="1" fill="#e6edf3" opacity="0.58"/><rect x="639" y="383.49668874172187" width="11" height="44.503311258278146" rx="1" fill="#e6edf3" opacity="0.69"/><rect x="654" y="355.4172185430464" width="11" height="72.58278145695364" rx="1" fill="#e6edf3" opacity="0.94"/><rect x="669" y="375.0198675496689" width="11" height="52.980132450331126" rx="1" fill="#e6edf3" opacity="0.76"/><rect x="684" y="367.3377483443709" width="11" height="60.662251655629134" rx="1" fill="#e6edf3" opacity="0.83"/><rect x="699" y="369.9867549668874" width="11" height="58.01324503311258" rx="1" fill="#e6edf3" opacity="0.81"/><rect x="714" y="356.2119205298013" width="11" height="71.78807947019868" rx="1" fill="#e6edf3" opacity="0.93"/><rect x="729" y="348" width="11" height="80" rx="1" fill="#e6edf3" opacity="1.00"/><rect x="744" y="355.4172185430464" width="11" height="72.58278145695364" rx="1" fill="#e6edf3" opacity="0.94"/><rect x="759" y="364.95364238410593" width="11" height="63.04635761589404" rx="1" fill="#e6edf3" opacity="0.85"/><rect x="774" y="356.7417218543046" width="11" height="71.25827814569536" rx="1" fill="#e6edf3" opacity="0.92"/><rect x="789" y="362.8344370860927" width="11" height="65.1655629139073" rx="1" fill="#e6edf3" opacity="0.87"/><rect x="804" y="369.72185430463577" width="11" height="58.27814569536423" rx="1" fill="#e6edf3" opacity="0.81"/><rect x="819" y="377.1390728476821" width="11" height="50.860927152317885" rx="1" fill="#e6edf3" opacity="0.75"/>
  <line x1="474" y1="432" x2="830" y2="432" stroke="#21262d" stroke-width="0.5"/>
  <text x="474" y="446" fill="#484f58" font-size="9">00h</text>
  <text x="652" y="446" fill="#484f58" font-size="9" text-anchor="middle">12h</text>
  <text x="830" y="446" fill="#484f58" font-size="9" text-anchor="end">24h</text>
  
  <text x="32" y="530" fill="#6e7681" font-size="10" letter-spacing="2">STATS</text>
  
  <text x="32" y="566" fill="#6e7681" font-size="9" letter-spacing="2">REPOS</text>
  <text x="32" y="590" fill="#e6edf3" font-size="16" font-weight="600">5</text>
  <text x="304" y="566" fill="#6e7681" font-size="9" letter-spacing="2">AVG / DAY</text>
  <text x="304" y="590" fill="#e6edf3" font-size="16" font-weight="600">10.7</text>
  <text x="576" y="566" fill="#6e7681" font-size="9" letter-spacing="2">PEAK DAY</text>
  <text x="576" y="590" fill="#e6edf3" font-size="16" font-weight="600">WED</text>
  <text x="32" y="622" fill="#6e7681" font-size="9" letter-spacing="2">PEAK HOUR</text>
  <text x="32" y="646" fill="#e6edf3" font-size="16" font-weight="600">17:00</text>
  <text x="304" y="622" fill="#6e7681" font-size="9" letter-spacing="2">LONGEST GAP</text>
  <text x="304" y="646" fill="#e6edf3" font-size="16" font-weight="600">13 days</text>
  <text x="576" y="622" fill="#6e7681" font-size="9" letter-spacing="2">LAST COMMIT</text>
  <text x="576" y="646" fill="#e6edf3" font-size="16" font-weight="600">17h ago</text>
  
  <line x1="32" y1="686" x2="848" y2="686" stroke="#21262d" stroke-width="0.5"/>
  <text x="32" y="710" fill="#484f58" font-size="10" letter-spacing="1">// telemetry · auto-generated · github actions</text>
  <text x="848" y="710" fill="#484f58" font-size="10" letter-spacing="1" text-anchor="end">↻ 2026-09-14</text>
</svg>
