<svg xmlns="http://www.w3.org/2000/svg" width="880" height="726" viewBox="0 0 880 726" font-family="'Courier New', 'SF Mono', Consolas, monospace">
  <defs>
    <pattern id="sl-priv" width="3" height="3" patternUnits="userSpaceOnUse">
      <rect width="3" height="1" fill="#ffffff" opacity="0.025"/>
    </pattern>
    <linearGradient id="hdr-priv" x1="0" y1="0" x2="1" y2="0">
      <stop offset="0%" stop-color="#161b22"/>
      <stop offset="100%" stop-color="#0d1117"/>
    </linearGradient>
  </defs>
  <rect width="880" height="726" rx="8" fill="#0d1117"/>
  <rect width="880" height="726" rx="8" fill="url(#sl-priv)"/>
  <rect x="0.5" y="0.5" width="879" height="725" rx="8" fill="none" stroke="#21262d" stroke-width="1"/>
  
  <rect x="0" y="0" width="880" height="44" rx="8" fill="url(#hdr-priv)"/>
  <rect x="0" y="38" width="880" height="6" fill="#0d1117"/>
  <line x1="0" y1="44" x2="880" y2="44" stroke="#e6edf3" stroke-width="0.6" opacity="0.55"/>
  <text x="20" y="28" fill="#e6edf3" font-size="13" letter-spacing="2">// TELEMETRY · PRIVATE</text>
  <text x="860" y="28" fill="#e6edf3" font-size="11" text-anchor="end" letter-spacing="1" opacity="0.75">[CLASSIFIED]</text>
  
  <text x="440" y="120" font-size="64" font-weight="700" fill="#ffffff" text-anchor="middle" letter-spacing="2">2,216</text>
  <text x="440" y="145" font-size="11" fill="#7d8590" text-anchor="middle" letter-spacing="3">COMMITS · LAST 365 DAYS</text>
  
  <text x="32" y="195" fill="#6e7681" font-size="10" letter-spacing="2">ACTIVITY · 52 WEEKS</text>
  <rect x="52" y="290" width="11" height="0" rx="1" fill="#e6edf3" opacity="0.30"/><rect x="67" y="290" width="11" height="0" rx="1" fill="#e6edf3" opacity="0.30"/><rect x="82" y="290" width="11" height="0" rx="1" fill="#e6edf3" opacity="0.30"/><rect x="97" y="290" width="11" height="0" rx="1" fill="#e6edf3" opacity="0.30"/><rect x="112" y="290" width="11" height="0" rx="1" fill="#e6edf3" opacity="0.30"/><rect x="127" y="290" width="11" height="0" rx="1" fill="#e6edf3" opacity="0.30"/><rect x="142" y="290" width="11" height="0" rx="1" fill="#e6edf3" opacity="0.30"/><rect x="157" y="290" width="11" height="0" rx="1" fill="#e6edf3" opacity="0.30"/><rect x="172" y="290" width="11" height="0" rx="1" fill="#e6edf3" opacity="0.30"/><rect x="187" y="290" width="11" height="0" rx="1" fill="#e6edf3" opacity="0.30"/><rect x="202" y="290" width="11" height="0" rx="1" fill="#e6edf3" opacity="0.30"/><rect x="217" y="290" width="11" height="0" rx="1" fill="#e6edf3" opacity="0.30"/><rect x="232" y="290" width="11" height="0" rx="1" fill="#e6edf3" opacity="0.30"/><rect x="247" y="290" width="11" height="0" rx="1" fill="#e6edf3" opacity="0.30"/><rect x="262" y="290" width="11" height="0" rx="1" fill="#e6edf3" opacity="0.30"/><rect x="277" y="290" width="11" height="0" rx="1" fill="#e6edf3" opacity="0.30"/><rect x="292" y="290" width="11" height="0" rx="1" fill="#e6edf3" opacity="0.30"/><rect x="307" y="290" width="11" height="0" rx="1" fill="#e6edf3" opacity="0.30"/><rect x="322" y="290" width="11" height="0" rx="1" fill="#e6edf3" opacity="0.30"/><rect x="337" y="290" width="11" height="0" rx="1" fill="#e6edf3" opacity="0.30"/><rect x="352" y="290" width="11" height="0" rx="1" fill="#e6edf3" opacity="0.30"/><rect x="367" y="290" width="11" height="0" rx="1" fill="#e6edf3" opacity="0.30"/><rect x="382" y="290" width="11" height="0" rx="1" fill="#e6edf3" opacity="0.30"/><rect x="397" y="290" width="11" height="0" rx="1" fill="#e6edf3" opacity="0.30"/><rect x="412" y="290" width="11" height="0" rx="1" fill="#e6edf3" opacity="0.30"/><rect x="427" y="290" width="11" height="0" rx="1" fill="#e6edf3" opacity="0.30"/><rect x="442" y="290" width="11" height="0" rx="1" fill="#e6edf3" opacity="0.30"/><rect x="457" y="290" width="11" height="0" rx="1" fill="#e6edf3" opacity="0.30"/><rect x="472" y="290" width="11" height="0" rx="1" fill="#e6edf3" opacity="0.30"/><rect x="487" y="290" width="11" height="0" rx="1" fill="#e6edf3" opacity="0.30"/><rect x="502" y="290" width="11" height="0" rx="1" fill="#e6edf3" opacity="0.30"/><rect x="517" y="290" width="11" height="0" rx="1" fill="#e6edf3" opacity="0.30"/><rect x="532" y="290" width="11" height="0" rx="1" fill="#e6edf3" opacity="0.30"/><rect x="547" y="290" width="11" height="0" rx="1" fill="#e6edf3" opacity="0.30"/><rect x="562" y="290" width="11" height="0" rx="1" fill="#e6edf3" opacity="0.30"/><rect x="577" y="290" width="11" height="0" rx="1" fill="#e6edf3" opacity="0.30"/><rect x="592" y="290" width="11" height="0" rx="1" fill="#e6edf3" opacity="0.30"/><rect x="607" y="290" width="11" height="0" rx="1" fill="#e6edf3" opacity="0.30"/><rect x="622" y="290" width="11" height="0" rx="1" fill="#e6edf3" opacity="0.30"/><rect x="637" y="290" width="11" height="0" rx="1" fill="#e6edf3" opacity="0.30"/><rect x="652" y="290" width="11" height="0" rx="1" fill="#e6edf3" opacity="0.30"/><rect x="667" y="290" width="11" height="0" rx="1" fill="#e6edf3" opacity="0.30"/><rect x="682" y="288" width="11" height="2" rx="1" fill="#e6edf3" opacity="0.30"/><rect x="697" y="290" width="11" height="0" rx="1" fill="#e6edf3" opacity="0.30"/><rect x="712" y="287.9773321708806" width="11" height="2.0226678291194418" rx="1" fill="#e6edf3" opacity="0.32"/><rect x="727" y="277.2362685265911" width="11" height="12.763731473408892" rx="1" fill="#e6edf3" opacity="0.41"/><rect x="742" y="210" width="11" height="80" rx="1" fill="#e6edf3" opacity="1.00"/><rect x="757" y="260.07846556233653" width="11" height="29.921534437663468" rx="1" fill="#e6edf3" opacity="0.56"/><rect x="772" y="280.514385353095" width="11" height="9.48561464690497" rx="1" fill="#e6edf3" opacity="0.38"/><rect x="787" y="286.23365300784656" width="11" height="3.766346992153444" rx="1" fill="#e6edf3" opacity="0.33"/><rect x="802" y="277.5850043591979" width="11" height="12.414995640802093" rx="1" fill="#e6edf3" opacity="0.41"/><rect x="817" y="285.88491717523976" width="11" height="4.115082824760244" rx="1" fill="#e6edf3" opacity="0.34"/>
  <line x1="52" y1="294" x2="828" y2="294" stroke="#21262d" stroke-width="0.5"/>
  <text x="52" y="308" fill="#484f58" font-size="9">52w ago</text>
  <text x="828" y="308" fill="#484f58" font-size="9" text-anchor="end">today</text>
  
  <text x="32" y="328" fill="#6e7681" font-size="10" letter-spacing="2">DISTRIBUTION · WEEKDAY</text>
  
  <text x="32" y="360" fill="#7d8590" font-size="11" letter-spacing="2">MON</text>
  <rect x="76" y="351" width="308" height="6" rx="3" fill="#161b22"/>
  <rect x="76" y="351" width="308" height="6" rx="3" fill="#e6edf3" opacity="1.00"/>
  <text x="424" y="360" fill="#e6edf3" font-size="11" text-anchor="end">492</text>
  <text x="32" y="382" fill="#7d8590" font-size="11" letter-spacing="2">TUE</text>
  <rect x="76" y="373" width="308" height="6" rx="3" fill="#161b22"/>
  <rect x="76" y="373" width="210.96747967479675" height="6" rx="3" fill="#e6edf3" opacity="0.84"/>
  <text x="424" y="382" fill="#e6edf3" font-size="11" text-anchor="end">337</text>
  <text x="32" y="404" fill="#7d8590" font-size="11" letter-spacing="2">WED</text>
  <rect x="76" y="395" width="308" height="6" rx="3" fill="#161b22"/>
  <rect x="76" y="395" width="282.3333333333333" height="6" rx="3" fill="#e6edf3" opacity="0.96"/>
  <text x="424" y="404" fill="#e6edf3" font-size="11" text-anchor="end">451</text>
  <text x="32" y="426" fill="#7d8590" font-size="11" letter-spacing="2">THU</text>
  <rect x="76" y="417" width="308" height="6" rx="3" fill="#161b22"/>
  <rect x="76" y="417" width="119.5691056910569" height="6" rx="3" fill="#e6edf3" opacity="0.69"/>
  <text x="424" y="426" fill="#e6edf3" font-size="11" text-anchor="end">191</text>
  <text x="32" y="448" fill="#7d8590" font-size="11" letter-spacing="2">FRI</text>
  <rect x="76" y="439" width="308" height="6" rx="3" fill="#161b22"/>
  <rect x="76" y="439" width="149.6178861788618" height="6" rx="3" fill="#e6edf3" opacity="0.74"/>
  <text x="424" y="448" fill="#e6edf3" font-size="11" text-anchor="end">239</text>
  <text x="32" y="470" fill="#7d8590" font-size="11" letter-spacing="2">SAT</text>
  <rect x="76" y="461" width="308" height="6" rx="3" fill="#161b22"/>
  <rect x="76" y="461" width="137.09756097560975" height="6" rx="3" fill="#e6edf3" opacity="0.72"/>
  <text x="424" y="470" fill="#e6edf3" font-size="11" text-anchor="end">219</text>
  <text x="32" y="492" fill="#7d8590" font-size="11" letter-spacing="2">SUN</text>
  <rect x="76" y="483" width="308" height="6" rx="3" fill="#161b22"/>
  <rect x="76" y="483" width="179.66666666666669" height="6" rx="3" fill="#e6edf3" opacity="0.79"/>
  <text x="424" y="492" fill="#e6edf3" font-size="11" text-anchor="end">287</text>
  
  <text x="456" y="328" fill="#6e7681" font-size="10" letter-spacing="2">CIRCADIAN · 24H</text>
  <rect x="474" y="388" width="11" height="40" rx="1" fill="#e6edf3" opacity="0.65"/><rect x="489" y="393.6521739130435" width="11" height="34.34782608695652" rx="1" fill="#e6edf3" opacity="0.60"/><rect x="504" y="412.3478260869565" width="11" height="15.652173913043478" rx="1" fill="#e6edf3" opacity="0.44"/><rect x="519" y="412.7826086956522" width="11" height="15.217391304347828" rx="1" fill="#e6edf3" opacity="0.43"/><rect x="534" y="424.0869565217391" width="11" height="3.9130434782608696" rx="1" fill="#e6edf3" opacity="0.33"/><rect x="549" y="426" width="11" height="2" rx="1" fill="#e6edf3" opacity="0.31"/><rect x="564" y="424.0869565217391" width="11" height="3.9130434782608696" rx="1" fill="#e6edf3" opacity="0.33"/><rect x="579" y="408" width="11" height="20" rx="1" fill="#e6edf3" opacity="0.47"/><rect x="594" y="404.95652173913044" width="11" height="23.043478260869566" rx="1" fill="#e6edf3" opacity="0.50"/><rect x="609" y="398.4347826086956" width="11" height="29.565217391304344" rx="1" fill="#e6edf3" opacity="0.56"/><rect x="624" y="397.1304347826087" width="11" height="30.869565217391305" rx="1" fill="#e6edf3" opacity="0.57"/><rect x="639" y="387.1304347826087" width="11" height="40.86956521739131" rx="1" fill="#e6edf3" opacity="0.66"/><rect x="654" y="348" width="11" height="80" rx="1" fill="#e6edf3" opacity="1.00"/><rect x="669" y="378.4347826086956" width="11" height="49.565217391304344" rx="1" fill="#e6edf3" opacity="0.73"/><rect x="684" y="375.82608695652175" width="11" height="52.173913043478265" rx="1" fill="#e6edf3" opacity="0.76"/><rect x="699" y="382.3478260869565" width="11" height="45.65217391304348" rx="1" fill="#e6edf3" opacity="0.70"/><rect x="714" y="364.0869565217391" width="11" height="63.91304347826087" rx="1" fill="#e6edf3" opacity="0.86"/><rect x="729" y="362.3478260869565" width="11" height="65.65217391304347" rx="1" fill="#e6edf3" opacity="0.87"/><rect x="744" y="361.47826086956525" width="11" height="66.52173913043478" rx="1" fill="#e6edf3" opacity="0.88"/><rect x="759" y="370.60869565217394" width="11" height="57.391304347826086" rx="1" fill="#e6edf3" opacity="0.80"/><rect x="774" y="362.3478260869565" width="11" height="65.65217391304347" rx="1" fill="#e6edf3" opacity="0.87"/><rect x="789" y="366.2608695652174" width="11" height="61.73913043478261" rx="1" fill="#e6edf3" opacity="0.84"/><rect x="804" y="375.39130434782606" width="11" height="52.608695652173914" rx="1" fill="#e6edf3" opacity="0.76"/><rect x="819" y="383.6521739130435" width="11" height="44.34782608695652" rx="1" fill="#e6edf3" opacity="0.69"/>
  <line x1="474" y1="432" x2="830" y2="432" stroke="#21262d" stroke-width="0.5"/>
  <text x="474" y="446" fill="#484f58" font-size="9">00h</text>
  <text x="652" y="446" fill="#484f58" font-size="9" text-anchor="middle">12h</text>
  <text x="830" y="446" fill="#484f58" font-size="9" text-anchor="end">24h</text>
  
  <text x="32" y="530" fill="#6e7681" font-size="10" letter-spacing="2">STATS</text>
  
  <text x="32" y="566" fill="#6e7681" font-size="9" letter-spacing="2">REPOS</text>
  <text x="32" y="590" fill="#e6edf3" font-size="16" font-weight="600">5</text>
  <text x="304" y="566" fill="#6e7681" font-size="9" letter-spacing="2">AVG / DAY</text>
  <text x="304" y="590" fill="#e6edf3" font-size="16" font-weight="600">6.1</text>
  <text x="576" y="566" fill="#6e7681" font-size="9" letter-spacing="2">PEAK DAY</text>
  <text x="576" y="590" fill="#e6edf3" font-size="16" font-weight="600">MON</text>
  <text x="32" y="622" fill="#6e7681" font-size="9" letter-spacing="2">PEAK HOUR</text>
  <text x="32" y="646" fill="#e6edf3" font-size="16" font-weight="600">12:00</text>
  <text x="304" y="622" fill="#6e7681" font-size="9" letter-spacing="2">LONGEST GAP</text>
  <text x="304" y="646" fill="#e6edf3" font-size="16" font-weight="600">11 days</text>
  <text x="576" y="622" fill="#6e7681" font-size="9" letter-spacing="2">LAST COMMIT</text>
  <text x="576" y="646" fill="#e6edf3" font-size="16" font-weight="600">22m ago</text>
  
  <line x1="32" y1="686" x2="848" y2="686" stroke="#21262d" stroke-width="0.5"/>
  <text x="32" y="710" fill="#484f58" font-size="10" letter-spacing="1">// telemetry · auto-generated · github actions</text>
  <text x="848" y="710" fill="#484f58" font-size="10" letter-spacing="1" text-anchor="end">↻ 2026-06-26</text>
</svg>
