<svg xmlns="http://www.w3.org/2000/svg" width="880" height="726" viewBox="0 0 880 726" font-family="'Courier New', 'SF Mono', Consolas, monospace">
  <defs>
    <pattern id="sl-priv" width="3" height="3" patternUnits="userSpaceOnUse">
      <rect width="3" height="1" fill="#ffffff" opacity="0.025"/>
    </pattern>
    <linearGradient id="hdr-priv" x1="0" y1="0" x2="1" y2="0">
      <stop offset="0%" stop-color="#161b22"/>
      <stop offset="100%" stop-color="#0d1117"/>
    </linearGradient>
  </defs>
  <rect width="880" height="726" rx="8" fill="#0d1117"/>
  <rect width="880" height="726" rx="8" fill="url(#sl-priv)"/>
  <rect x="0.5" y="0.5" width="879" height="725" rx="8" fill="none" stroke="#21262d" stroke-width="1"/>
  
  <rect x="0" y="0" width="880" height="44" rx="8" fill="url(#hdr-priv)"/>
  <rect x="0" y="38" width="880" height="6" fill="#0d1117"/>
  <line x1="0" y1="44" x2="880" y2="44" stroke="#e6edf3" stroke-width="0.6" opacity="0.55"/>
  <text x="20" y="28" fill="#e6edf3" font-size="13" letter-spacing="2">// TELEMETRY · PRIVATE</text>
  <text x="860" y="28" fill="#e6edf3" font-size="11" text-anchor="end" letter-spacing="1" opacity="0.75">[CLASSIFIED]</text>
  
  <text x="440" y="120" font-size="64" font-weight="700" fill="#ffffff" text-anchor="middle" letter-spacing="2">5,215</text>
  <text x="440" y="145" font-size="11" fill="#7d8590" text-anchor="middle" letter-spacing="3">COMMITS · LAST 365 DAYS</text>
  
  <text x="32" y="195" fill="#6e7681" font-size="10" letter-spacing="2">ACTIVITY · 52 WEEKS</text>
  <rect x="52" y="290" width="11" height="0" rx="1" fill="#e6edf3" opacity="0.30"/><rect x="67" y="290" width="11" height="0" rx="1" fill="#e6edf3" opacity="0.30"/><rect x="82" y="290" width="11" height="0" rx="1" fill="#e6edf3" opacity="0.30"/><rect x="97" y="290" width="11" height="0" rx="1" fill="#e6edf3" opacity="0.30"/><rect x="112" y="290" width="11" height="0" rx="1" fill="#e6edf3" opacity="0.30"/><rect x="127" y="290" width="11" height="0" rx="1" fill="#e6edf3" opacity="0.30"/><rect x="142" y="290" width="11" height="0" rx="1" fill="#e6edf3" opacity="0.30"/><rect x="157" y="290" width="11" height="0" rx="1" fill="#e6edf3" opacity="0.30"/><rect x="172" y="290" width="11" height="0" rx="1" fill="#e6edf3" opacity="0.30"/><rect x="187" y="290" width="11" height="0" rx="1" fill="#e6edf3" opacity="0.30"/><rect x="202" y="290" width="11" height="0" rx="1" fill="#e6edf3" opacity="0.30"/><rect x="217" y="290" width="11" height="0" rx="1" fill="#e6edf3" opacity="0.30"/><rect x="232" y="290" width="11" height="0" rx="1" fill="#e6edf3" opacity="0.30"/><rect x="247" y="290" width="11" height="0" rx="1" fill="#e6edf3" opacity="0.30"/><rect x="262" y="290" width="11" height="0" rx="1" fill="#e6edf3" opacity="0.30"/><rect x="277" y="290" width="11" height="0" rx="1" fill="#e6edf3" opacity="0.30"/><rect x="292" y="290" width="11" height="0" rx="1" fill="#e6edf3" opacity="0.30"/><rect x="307" y="290" width="11" height="0" rx="1" fill="#e6edf3" opacity="0.30"/><rect x="322" y="290" width="11" height="0" rx="1" fill="#e6edf3" opacity="0.30"/><rect x="337" y="290" width="11" height="0" rx="1" fill="#e6edf3" opacity="0.30"/><rect x="352" y="290" width="11" height="0" rx="1" fill="#e6edf3" opacity="0.30"/><rect x="367" y="290" width="11" height="0" rx="1" fill="#e6edf3" opacity="0.30"/><rect x="382" y="290" width="11" height="0" rx="1" fill="#e6edf3" opacity="0.30"/><rect x="397" y="290" width="11" height="0" rx="1" fill="#e6edf3" opacity="0.30"/><rect x="412" y="290" width="11" height="0" rx="1" fill="#e6edf3" opacity="0.30"/><rect x="427" y="290" width="11" height="0" rx="1" fill="#e6edf3" opacity="0.30"/><rect x="442" y="290" width="11" height="0" rx="1" fill="#e6edf3" opacity="0.30"/><rect x="457" y="288" width="11" height="2" rx="1" fill="#e6edf3" opacity="0.30"/><rect x="472" y="290" width="11" height="0" rx="1" fill="#e6edf3" opacity="0.30"/><rect x="487" y="288" width="11" height="2" rx="1" fill="#e6edf3" opacity="0.32"/><rect x="502" y="278.24347826086955" width="11" height="11.756521739130434" rx="1" fill="#e6edf3" opacity="0.40"/><rect x="517" y="210.55652173913043" width="11" height="79.44347826086957" rx="1" fill="#e6edf3" opacity="1.00"/><rect x="532" y="259.8086956521739" width="11" height="30.191304347826087" rx="1" fill="#e6edf3" opacity="0.56"/><rect x="547" y="279.3565217391304" width="11" height="10.643478260869566" rx="1" fill="#e6edf3" opacity="0.39"/><rect x="562" y="284.8521739130435" width="11" height="5.147826086956522" rx="1" fill="#e6edf3" opacity="0.35"/><rect x="577" y="269.2695652173913" width="11" height="20.730434782608697" rx="1" fill="#e6edf3" opacity="0.48"/><rect x="592" y="282.1391304347826" width="11" height="7.860869565217391" rx="1" fill="#e6edf3" opacity="0.37"/><rect x="607" y="263.0086956521739" width="11" height="26.991304347826087" rx="1" fill="#e6edf3" opacity="0.54"/><rect x="622" y="288" width="11" height="2" rx="1" fill="#e6edf3" opacity="0.30"/><rect x="637" y="290" width="11" height="0" rx="1" fill="#e6edf3" opacity="0.30"/><rect x="652" y="285.2" width="11" height="4.8" rx="1" fill="#e6edf3" opacity="0.34"/><rect x="667" y="287.8434782608696" width="11" height="2.1565217391304348" rx="1" fill="#e6edf3" opacity="0.32"/><rect x="682" y="288" width="11" height="2" rx="1" fill="#e6edf3" opacity="0.31"/><rect x="697" y="275.18260869565216" width="11" height="14.817391304347826" rx="1" fill="#e6edf3" opacity="0.43"/><rect x="712" y="286.45217391304345" width="11" height="3.5478260869565217" rx="1" fill="#e6edf3" opacity="0.33"/><rect x="727" y="287.8434782608696" width="11" height="2.1565217391304348" rx="1" fill="#e6edf3" opacity="0.32"/><rect x="742" y="278.8" width="11" height="11.200000000000001" rx="1" fill="#e6edf3" opacity="0.40"/><rect x="757" y="260.1565217391304" width="11" height="29.843478260869567" rx="1" fill="#e6edf3" opacity="0.56"/><rect x="772" y="277.4782608695652" width="11" height="12.521739130434783" rx="1" fill="#e6edf3" opacity="0.41"/><rect x="787" y="288" width="11" height="2" rx="1" fill="#e6edf3" opacity="0.30"/><rect x="802" y="284.3652173913043" width="11" height="5.634782608695652" rx="1" fill="#e6edf3" opacity="0.35"/><rect x="817" y="210" width="11" height="80" rx="1" fill="#e6edf3" opacity="1.00"/>
  <line x1="52" y1="294" x2="828" y2="294" stroke="#21262d" stroke-width="0.5"/>
  <text x="52" y="308" fill="#484f58" font-size="9">52w ago</text>
  <text x="828" y="308" fill="#484f58" font-size="9" text-anchor="end">today</text>
  
  <text x="32" y="328" fill="#6e7681" font-size="10" letter-spacing="2">DISTRIBUTION · WEEKDAY</text>
  
  <text x="32" y="360" fill="#7d8590" font-size="11" letter-spacing="2">MON</text>
  <rect x="76" y="351" width="308" height="6" rx="3" fill="#161b22"/>
  <rect x="76" y="351" width="224.15692554043233" height="6" rx="3" fill="#e6edf3" opacity="0.86"/>
  <text x="424" y="360" fill="#e6edf3" font-size="11" text-anchor="end">909</text>
  <text x="32" y="382" fill="#7d8590" font-size="11" letter-spacing="2">TUE</text>
  <rect x="76" y="373" width="308" height="6" rx="3" fill="#161b22"/>
  <rect x="76" y="373" width="200.9767814251401" height="6" rx="3" fill="#e6edf3" opacity="0.83"/>
  <text x="424" y="382" fill="#e6edf3" font-size="11" text-anchor="end">815</text>
  <text x="32" y="404" fill="#7d8590" font-size="11" letter-spacing="2">WED</text>
  <rect x="76" y="395" width="308" height="6" rx="3" fill="#161b22"/>
  <rect x="76" y="395" width="308" height="6" rx="3" fill="#e6edf3" opacity="1.00"/>
  <text x="424" y="404" fill="#e6edf3" font-size="11" text-anchor="end">1249</text>
  <text x="32" y="426" fill="#7d8590" font-size="11" letter-spacing="2">THU</text>
  <rect x="76" y="417" width="308" height="6" rx="3" fill="#161b22"/>
  <rect x="76" y="417" width="211.08726981585266" height="6" rx="3" fill="#e6edf3" opacity="0.84"/>
  <text x="424" y="426" fill="#e6edf3" font-size="11" text-anchor="end">856</text>
  <text x="32" y="448" fill="#7d8590" font-size="11" letter-spacing="2">FRI</text>
  <rect x="76" y="439" width="308" height="6" rx="3" fill="#161b22"/>
  <rect x="76" y="439" width="121.07926341072857" height="6" rx="3" fill="#e6edf3" opacity="0.70"/>
  <text x="424" y="448" fill="#e6edf3" font-size="11" text-anchor="end">491</text>
  <text x="32" y="470" fill="#7d8590" font-size="11" letter-spacing="2">SAT</text>
  <rect x="76" y="461" width="308" height="6" rx="3" fill="#161b22"/>
  <rect x="76" y="461" width="104.80384307445958" height="6" rx="3" fill="#e6edf3" opacity="0.67"/>
  <text x="424" y="470" fill="#e6edf3" font-size="11" text-anchor="end">425</text>
  <text x="32" y="492" fill="#7d8590" font-size="11" letter-spacing="2">SUN</text>
  <rect x="76" y="483" width="308" height="6" rx="3" fill="#161b22"/>
  <rect x="76" y="483" width="115.90072057646117" height="6" rx="3" fill="#e6edf3" opacity="0.69"/>
  <text x="424" y="492" fill="#e6edf3" font-size="11" text-anchor="end">470</text>
  
  <text x="456" y="328" fill="#6e7681" font-size="10" letter-spacing="2">CIRCADIAN · 24H</text>
  <rect x="474" y="388.52219321148823" width="11" height="39.47780678851175" rx="1" fill="#e6edf3" opacity="0.65"/><rect x="489" y="386.22454308093995" width="11" height="41.775456919060055" rx="1" fill="#e6edf3" opacity="0.67"/><rect x="504" y="405.65013054830285" width="11" height="22.349869451697128" rx="1" fill="#e6edf3" opacity="0.50"/><rect x="519" y="407.9477806788512" width="11" height="20.052219321148822" rx="1" fill="#e6edf3" opacity="0.48"/><rect x="534" y="418.18276762402087" width="11" height="9.817232375979113" rx="1" fill="#e6edf3" opacity="0.39"/><rect x="549" y="415.2584856396867" width="11" height="12.741514360313316" rx="1" fill="#e6edf3" opacity="0.41"/><rect x="564" y="410.6631853785901" width="11" height="17.33681462140992" rx="1" fill="#e6edf3" opacity="0.45"/><rect x="579" y="409.40992167101825" width="11" height="18.590078328981722" rx="1" fill="#e6edf3" opacity="0.46"/><rect x="594" y="401.89033942558746" width="11" height="26.109660574412533" rx="1" fill="#e6edf3" opacity="0.53"/><rect x="609" y="405.023498694517" width="11" height="22.976501305483026" rx="1" fill="#e6edf3" opacity="0.50"/><rect x="624" y="397.92167101827675" width="11" height="30.07832898172324" rx="1" fill="#e6edf3" opacity="0.56"/><rect x="639" y="386.64229765013056" width="11" height="41.357702349869456" rx="1" fill="#e6edf3" opacity="0.66"/><rect x="654" y="355.5195822454308" width="11" height="72.48041775456919" rx="1" fill="#e6edf3" opacity="0.93"/><rect x="669" y="368.2610966057441" width="11" height="59.73890339425587" rx="1" fill="#e6edf3" opacity="0.82"/><rect x="684" y="369.0966057441253" width="11" height="58.90339425587467" rx="1" fill="#e6edf3" opacity="0.82"/><rect x="699" y="370.76762402088775" width="11" height="57.23237597911228" rx="1" fill="#e6edf3" opacity="0.80"/><rect x="714" y="358.44386422976504" width="11" height="69.55613577023499" rx="1" fill="#e6edf3" opacity="0.91"/><rect x="729" y="348" width="11" height="80" rx="1" fill="#e6edf3" opacity="1.00"/><rect x="744" y="358.44386422976504" width="11" height="69.55613577023499" rx="1" fill="#e6edf3" opacity="0.91"/><rect x="759" y="367.2167101827676" width="11" height="60.78328981723238" rx="1" fill="#e6edf3" opacity="0.83"/><rect x="774" y="358.2349869451697" width="11" height="69.76501305483029" rx="1" fill="#e6edf3" opacity="0.91"/><rect x="789" y="354.266318537859" width="11" height="73.73368146214099" rx="1" fill="#e6edf3" opacity="0.95"/><rect x="804" y="364.9190600522193" width="11" height="63.080939947780685" rx="1" fill="#e6edf3" opacity="0.85"/><rect x="819" y="376.1984334203655" width="11" height="51.80156657963447" rx="1" fill="#e6edf3" opacity="0.75"/>
  <line x1="474" y1="432" x2="830" y2="432" stroke="#21262d" stroke-width="0.5"/>
  <text x="474" y="446" fill="#484f58" font-size="9">00h</text>
  <text x="652" y="446" fill="#484f58" font-size="9" text-anchor="middle">12h</text>
  <text x="830" y="446" fill="#484f58" font-size="9" text-anchor="end">24h</text>
  
  <text x="32" y="530" fill="#6e7681" font-size="10" letter-spacing="2">STATS</text>
  
  <text x="32" y="566" fill="#6e7681" font-size="9" letter-spacing="2">REPOS</text>
  <text x="32" y="590" fill="#e6edf3" font-size="16" font-weight="600">9</text>
  <text x="304" y="566" fill="#6e7681" font-size="9" letter-spacing="2">AVG / DAY</text>
  <text x="304" y="590" fill="#e6edf3" font-size="16" font-weight="600">14.3</text>
  <text x="576" y="566" fill="#6e7681" font-size="9" letter-spacing="2">PEAK DAY</text>
  <text x="576" y="590" fill="#e6edf3" font-size="16" font-weight="600">WED</text>
  <text x="32" y="622" fill="#6e7681" font-size="9" letter-spacing="2">PEAK HOUR</text>
  <text x="32" y="646" fill="#e6edf3" font-size="16" font-weight="600">17:00</text>
  <text x="304" y="622" fill="#6e7681" font-size="9" letter-spacing="2">LONGEST GAP</text>
  <text x="304" y="646" fill="#e6edf3" font-size="16" font-weight="600">13 days</text>
  <text x="576" y="622" fill="#6e7681" font-size="9" letter-spacing="2">LAST COMMIT</text>
  <text x="576" y="646" fill="#e6edf3" font-size="16" font-weight="600">3h ago</text>
  
  <line x1="32" y1="686" x2="848" y2="686" stroke="#21262d" stroke-width="0.5"/>
  <text x="32" y="710" fill="#484f58" font-size="10" letter-spacing="1">// telemetry · auto-generated · github actions</text>
  <text x="848" y="710" fill="#484f58" font-size="10" letter-spacing="1" text-anchor="end">↻ 2026-10-09</text>
</svg>
