<svg xmlns="http://www.w3.org/2000/svg" width="880" height="726" viewBox="0 0 880 726" font-family="'Courier New', 'SF Mono', Consolas, monospace">
  <defs>
    <pattern id="sl-priv" width="3" height="3" patternUnits="userSpaceOnUse">
      <rect width="3" height="1" fill="#ffffff" opacity="0.025"/>
    </pattern>
    <linearGradient id="hdr-priv" x1="0" y1="0" x2="1" y2="0">
      <stop offset="0%" stop-color="#161b22"/>
      <stop offset="100%" stop-color="#0d1117"/>
    </linearGradient>
  </defs>
  <rect width="880" height="726" rx="8" fill="#0d1117"/>
  <rect width="880" height="726" rx="8" fill="url(#sl-priv)"/>
  <rect x="0.5" y="0.5" width="879" height="725" rx="8" fill="none" stroke="#21262d" stroke-width="1"/>
  
  <rect x="0" y="0" width="880" height="44" rx="8" fill="url(#hdr-priv)"/>
  <rect x="0" y="38" width="880" height="6" fill="#0d1117"/>
  <line x1="0" y1="44" x2="880" y2="44" stroke="#e6edf3" stroke-width="0.6" opacity="0.55"/>
  <text x="20" y="28" fill="#e6edf3" font-size="13" letter-spacing="2">// TELEMETRY · PRIVATE</text>
  <text x="860" y="28" fill="#e6edf3" font-size="11" text-anchor="end" letter-spacing="1" opacity="0.75">[CLASSIFIED]</text>
  
  <text x="440" y="120" font-size="64" font-weight="700" fill="#ffffff" text-anchor="middle" letter-spacing="2">3,381</text>
  <text x="440" y="145" font-size="11" fill="#7d8590" text-anchor="middle" letter-spacing="3">COMMITS · LAST 365 DAYS</text>
  
  <text x="32" y="195" fill="#6e7681" font-size="10" letter-spacing="2">ACTIVITY · 52 WEEKS</text>
  <rect x="52" y="290" width="11" height="0" rx="1" fill="#e6edf3" opacity="0.30"/><rect x="67" y="290" width="11" height="0" rx="1" fill="#e6edf3" opacity="0.30"/><rect x="82" y="290" width="11" height="0" rx="1" fill="#e6edf3" opacity="0.30"/><rect x="97" y="290" width="11" height="0" rx="1" fill="#e6edf3" opacity="0.30"/><rect x="112" y="290" width="11" height="0" rx="1" fill="#e6edf3" opacity="0.30"/><rect x="127" y="290" width="11" height="0" rx="1" fill="#e6edf3" opacity="0.30"/><rect x="142" y="290" width="11" height="0" rx="1" fill="#e6edf3" opacity="0.30"/><rect x="157" y="290" width="11" height="0" rx="1" fill="#e6edf3" opacity="0.30"/><rect x="172" y="290" width="11" height="0" rx="1" fill="#e6edf3" opacity="0.30"/><rect x="187" y="290" width="11" height="0" rx="1" fill="#e6edf3" opacity="0.30"/><rect x="202" y="290" width="11" height="0" rx="1" fill="#e6edf3" opacity="0.30"/><rect x="217" y="290" width="11" height="0" rx="1" fill="#e6edf3" opacity="0.30"/><rect x="232" y="290" width="11" height="0" rx="1" fill="#e6edf3" opacity="0.30"/><rect x="247" y="290" width="11" height="0" rx="1" fill="#e6edf3" opacity="0.30"/><rect x="262" y="290" width="11" height="0" rx="1" fill="#e6edf3" opacity="0.30"/><rect x="277" y="290" width="11" height="0" rx="1" fill="#e6edf3" opacity="0.30"/><rect x="292" y="290" width="11" height="0" rx="1" fill="#e6edf3" opacity="0.30"/><rect x="307" y="290" width="11" height="0" rx="1" fill="#e6edf3" opacity="0.30"/><rect x="322" y="290" width="11" height="0" rx="1" fill="#e6edf3" opacity="0.30"/><rect x="337" y="290" width="11" height="0" rx="1" fill="#e6edf3" opacity="0.30"/><rect x="352" y="290" width="11" height="0" rx="1" fill="#e6edf3" opacity="0.30"/><rect x="367" y="290" width="11" height="0" rx="1" fill="#e6edf3" opacity="0.30"/><rect x="382" y="290" width="11" height="0" rx="1" fill="#e6edf3" opacity="0.30"/><rect x="397" y="290" width="11" height="0" rx="1" fill="#e6edf3" opacity="0.30"/><rect x="412" y="290" width="11" height="0" rx="1" fill="#e6edf3" opacity="0.30"/><rect x="427" y="290" width="11" height="0" rx="1" fill="#e6edf3" opacity="0.30"/><rect x="442" y="290" width="11" height="0" rx="1" fill="#e6edf3" opacity="0.30"/><rect x="457" y="290" width="11" height="0" rx="1" fill="#e6edf3" opacity="0.30"/><rect x="472" y="290" width="11" height="0" rx="1" fill="#e6edf3" opacity="0.30"/><rect x="487" y="290" width="11" height="0" rx="1" fill="#e6edf3" opacity="0.30"/><rect x="502" y="290" width="11" height="0" rx="1" fill="#e6edf3" opacity="0.30"/><rect x="517" y="290" width="11" height="0" rx="1" fill="#e6edf3" opacity="0.30"/><rect x="532" y="288" width="11" height="2" rx="1" fill="#e6edf3" opacity="0.30"/><rect x="547" y="290" width="11" height="0" rx="1" fill="#e6edf3" opacity="0.30"/><rect x="562" y="284.8985507246377" width="11" height="5.101449275362318" rx="1" fill="#e6edf3" opacity="0.34"/><rect x="577" y="252.975845410628" width="11" height="37.02415458937198" rx="1" fill="#e6edf3" opacity="0.62"/><rect x="592" y="210" width="11" height="80" rx="1" fill="#e6edf3" opacity="1.00"/><rect x="607" y="267.8937198067633" width="11" height="22.106280193236714" rx="1" fill="#e6edf3" opacity="0.49"/><rect x="622" y="283.7391304347826" width="11" height="6.260869565217392" rx="1" fill="#e6edf3" opacity="0.35"/><rect x="637" y="281.4975845410628" width="11" height="8.502415458937199" rx="1" fill="#e6edf3" opacity="0.37"/><rect x="652" y="267.19806763285027" width="11" height="22.801932367149757" rx="1" fill="#e6edf3" opacity="0.50"/><rect x="667" y="264.57004830917873" width="11" height="25.429951690821255" rx="1" fill="#e6edf3" opacity="0.52"/><rect x="682" y="280.8792270531401" width="11" height="9.120772946859903" rx="1" fill="#e6edf3" opacity="0.38"/><rect x="697" y="288" width="11" height="2" rx="1" fill="#e6edf3" opacity="0.30"/><rect x="712" y="290" width="11" height="0" rx="1" fill="#e6edf3" opacity="0.30"/><rect x="727" y="284.4347826086956" width="11" height="5.565217391304348" rx="1" fill="#e6edf3" opacity="0.35"/><rect x="742" y="286.90821256038646" width="11" height="3.0917874396135265" rx="1" fill="#e6edf3" opacity="0.33"/><rect x="757" y="287.2173913043478" width="11" height="2.782608695652174" rx="1" fill="#e6edf3" opacity="0.32"/><rect x="772" y="274.92753623188406" width="11" height="15.072463768115941" rx="1" fill="#e6edf3" opacity="0.43"/><rect x="787" y="287.3719806763285" width="11" height="2.6280193236714977" rx="1" fill="#e6edf3" opacity="0.32"/><rect x="802" y="286.5990338164251" width="11" height="3.4009661835748792" rx="1" fill="#e6edf3" opacity="0.33"/><rect x="817" y="277.71014492753625" width="11" height="12.28985507246377" rx="1" fill="#e6edf3" opacity="0.41"/>
  <line x1="52" y1="294" x2="828" y2="294" stroke="#21262d" stroke-width="0.5"/>
  <text x="52" y="308" fill="#484f58" font-size="9">52w ago</text>
  <text x="828" y="308" fill="#484f58" font-size="9" text-anchor="end">today</text>
  
  <text x="32" y="328" fill="#6e7681" font-size="10" letter-spacing="2">DISTRIBUTION · WEEKDAY</text>
  
  <text x="32" y="360" fill="#7d8590" font-size="11" letter-spacing="2">MON</text>
  <rect x="76" y="351" width="308" height="6" rx="3" fill="#161b22"/>
  <rect x="76" y="351" width="271.5376044568245" height="6" rx="3" fill="#e6edf3" opacity="0.94"/>
  <text x="424" y="360" fill="#e6edf3" font-size="11" text-anchor="end">633</text>
  <text x="32" y="382" fill="#7d8590" font-size="11" letter-spacing="2">TUE</text>
  <rect x="76" y="373" width="308" height="6" rx="3" fill="#161b22"/>
  <rect x="76" y="373" width="187.88857938718664" height="6" rx="3" fill="#e6edf3" opacity="0.81"/>
  <text x="424" y="382" fill="#e6edf3" font-size="11" text-anchor="end">438</text>
  <text x="32" y="404" fill="#7d8590" font-size="11" letter-spacing="2">WED</text>
  <rect x="76" y="395" width="308" height="6" rx="3" fill="#161b22"/>
  <rect x="76" y="395" width="308" height="6" rx="3" fill="#e6edf3" opacity="1.00"/>
  <text x="424" y="404" fill="#e6edf3" font-size="11" text-anchor="end">718</text>
  <text x="32" y="426" fill="#7d8590" font-size="11" letter-spacing="2">THU</text>
  <rect x="76" y="417" width="308" height="6" rx="3" fill="#161b22"/>
  <rect x="76" y="417" width="198.18384401114207" height="6" rx="3" fill="#e6edf3" opacity="0.82"/>
  <text x="424" y="426" fill="#e6edf3" font-size="11" text-anchor="end">462</text>
  <text x="32" y="448" fill="#7d8590" font-size="11" letter-spacing="2">FRI</text>
  <rect x="76" y="439" width="308" height="6" rx="3" fill="#161b22"/>
  <rect x="76" y="439" width="160.86350974930363" height="6" rx="3" fill="#e6edf3" opacity="0.76"/>
  <text x="424" y="448" fill="#e6edf3" font-size="11" text-anchor="end">375</text>
  <text x="32" y="470" fill="#7d8590" font-size="11" letter-spacing="2">SAT</text>
  <rect x="76" y="461" width="308" height="6" rx="3" fill="#161b22"/>
  <rect x="76" y="461" width="154" height="6" rx="3" fill="#e6edf3" opacity="0.75"/>
  <text x="424" y="470" fill="#e6edf3" font-size="11" text-anchor="end">359</text>
  <text x="32" y="492" fill="#7d8590" font-size="11" letter-spacing="2">SUN</text>
  <rect x="76" y="483" width="308" height="6" rx="3" fill="#161b22"/>
  <rect x="76" y="483" width="169.87186629526462" height="6" rx="3" fill="#e6edf3" opacity="0.78"/>
  <text x="424" y="492" fill="#e6edf3" font-size="11" text-anchor="end">396</text>
  
  <text x="456" y="328" fill="#6e7681" font-size="10" letter-spacing="2">CIRCADIAN · 24H</text>
  <rect x="474" y="389.99233716475095" width="11" height="38.00766283524904" rx="1" fill="#e6edf3" opacity="0.63"/><rect x="489" y="396.735632183908" width="11" height="31.264367816091955" rx="1" fill="#e6edf3" opacity="0.57"/><rect x="504" y="412.67432950191574" width="11" height="15.325670498084293" rx="1" fill="#e6edf3" opacity="0.43"/><rect x="519" y="414.51340996168585" width="11" height="13.486590038314176" rx="1" fill="#e6edf3" opacity="0.42"/><rect x="534" y="424.62835249042143" width="11" height="3.371647509578544" rx="1" fill="#e6edf3" opacity="0.33"/><rect x="549" y="425.8544061302682" width="11" height="2.1455938697318007" rx="1" fill="#e6edf3" opacity="0.32"/><rect x="564" y="420.03065134099614" width="11" height="7.969348659003831" rx="1" fill="#e6edf3" opacity="0.37"/><rect x="579" y="408.07662835249045" width="11" height="19.923371647509576" rx="1" fill="#e6edf3" opacity="0.47"/><rect x="594" y="395.5095785440613" width="11" height="32.490421455938694" rx="1" fill="#e6edf3" opacity="0.58"/><rect x="609" y="400.41379310344826" width="11" height="27.586206896551726" rx="1" fill="#e6edf3" opacity="0.54"/><rect x="624" y="394.59003831417624" width="11" height="33.40996168582376" rx="1" fill="#e6edf3" opacity="0.59"/><rect x="639" y="383.8620689655172" width="11" height="44.13793103448276" rx="1" fill="#e6edf3" opacity="0.69"/><rect x="654" y="354.1302681992337" width="11" height="73.86973180076629" rx="1" fill="#e6edf3" opacity="0.95"/><rect x="669" y="373.4406130268199" width="11" height="54.559386973180075" rx="1" fill="#e6edf3" opacity="0.78"/><rect x="684" y="368.8429118773946" width="11" height="59.157088122605366" rx="1" fill="#e6edf3" opacity="0.82"/><rect x="699" y="371.2950191570881" width="11" height="56.70498084291188" rx="1" fill="#e6edf3" opacity="0.80"/><rect x="714" y="356.2758620689655" width="11" height="71.72413793103448" rx="1" fill="#e6edf3" opacity="0.93"/><rect x="729" y="348" width="11" height="80" rx="1" fill="#e6edf3" opacity="1.00"/><rect x="744" y="356.8888888888889" width="11" height="71.11111111111111" rx="1" fill="#e6edf3" opacity="0.92"/><rect x="759" y="364.55172413793105" width="11" height="63.44827586206897" rx="1" fill="#e6edf3" opacity="0.86"/><rect x="774" y="356.2758620689655" width="11" height="71.72413793103448" rx="1" fill="#e6edf3" opacity="0.93"/><rect x="789" y="364.8582375478927" width="11" height="63.14176245210728" rx="1" fill="#e6edf3" opacity="0.85"/><rect x="804" y="373.4406130268199" width="11" height="54.559386973180075" rx="1" fill="#e6edf3" opacity="0.78"/><rect x="819" y="380.79693486590037" width="11" height="47.20306513409962" rx="1" fill="#e6edf3" opacity="0.71"/>
  <line x1="474" y1="432" x2="830" y2="432" stroke="#21262d" stroke-width="0.5"/>
  <text x="474" y="446" fill="#484f58" font-size="9">00h</text>
  <text x="652" y="446" fill="#484f58" font-size="9" text-anchor="middle">12h</text>
  <text x="830" y="446" fill="#484f58" font-size="9" text-anchor="end">24h</text>
  
  <text x="32" y="530" fill="#6e7681" font-size="10" letter-spacing="2">STATS</text>
  
  <text x="32" y="566" fill="#6e7681" font-size="9" letter-spacing="2">REPOS</text>
  <text x="32" y="590" fill="#e6edf3" font-size="16" font-weight="600">5</text>
  <text x="304" y="566" fill="#6e7681" font-size="9" letter-spacing="2">AVG / DAY</text>
  <text x="304" y="590" fill="#e6edf3" font-size="16" font-weight="600">9.3</text>
  <text x="576" y="566" fill="#6e7681" font-size="9" letter-spacing="2">PEAK DAY</text>
  <text x="576" y="590" fill="#e6edf3" font-size="16" font-weight="600">WED</text>
  <text x="32" y="622" fill="#6e7681" font-size="9" letter-spacing="2">PEAK HOUR</text>
  <text x="32" y="646" fill="#e6edf3" font-size="16" font-weight="600">17:00</text>
  <text x="304" y="622" fill="#6e7681" font-size="9" letter-spacing="2">LONGEST GAP</text>
  <text x="304" y="646" fill="#e6edf3" font-size="16" font-weight="600">13 days</text>
  <text x="576" y="622" fill="#6e7681" font-size="9" letter-spacing="2">LAST COMMIT</text>
  <text x="576" y="646" fill="#e6edf3" font-size="16" font-weight="600">1h ago</text>
  
  <line x1="32" y1="686" x2="848" y2="686" stroke="#21262d" stroke-width="0.5"/>
  <text x="32" y="710" fill="#484f58" font-size="10" letter-spacing="1">// telemetry · auto-generated · github actions</text>
  <text x="848" y="710" fill="#484f58" font-size="10" letter-spacing="1" text-anchor="end">↻ 2026-09-07</text>
</svg>
